<svg version="1.1" id="Layer_1" xmlns="http://www.w3.org/2000/svg" xmlns:xlink="http://www.w3.org/1999/xlink" x="0px" y="0px"
	 width="100%" viewBox="0 0 133 107" enable-background="new 0 0 133 107" xml:space="preserve">
<path fill="#FEFFFE" opacity="1.000000" stroke="none" 
	d="
M134.000000,35.000000 
	C134.000000,59.287762 134.000000,83.575523 134.000000,107.931641 
	C89.666687,107.931641 45.333355,107.931641 1.000000,107.931641 
	C1.000000,98.903603 1.000000,89.920456 1.344458,80.522385 
	C2.896850,80.943558 4.051311,81.873245 5.322086,82.599380 
	C10.485127,85.549614 17.914795,86.637070 14.927813,95.976135 
	C21.170179,96.346375 26.659637,96.967491 32.131859,96.841293 
	C34.132462,96.795166 36.092152,94.974686 38.522823,93.956711 
	C42.636311,93.936401 46.297478,93.923027 50.123138,94.153267 
	C50.858795,93.940971 51.429962,93.485054 52.370422,93.004440 
	C53.479595,92.957329 54.219467,92.934921 55.158798,93.177338 
	C56.904724,92.621391 58.451191,91.800629 60.323685,90.829430 
	C62.105545,89.772728 63.561382,88.866463 65.232132,87.827469 
	C65.774040,87.624443 66.101013,87.554153 66.829773,87.621384 
	C69.026184,86.720276 70.820808,85.681648 72.648865,84.649063 
	C72.682289,84.655113 72.743881,84.626434 73.017929,84.676888 
	C73.533302,84.467575 73.774635,84.207817 74.148285,83.856689 
	C74.280617,83.765320 74.601837,83.749374 74.904091,83.766899 
	C75.471512,83.502502 75.736679,83.220573 76.211243,82.772743 
	C76.896683,82.368027 77.372711,82.129211 78.241348,81.938896 
	C80.812569,81.197273 84.028763,81.845749 84.270149,77.836243 
	C85.933586,76.661430 87.384750,75.725792 89.118431,74.938881 
	C90.234726,75.718414 91.068512,76.349220 91.907898,77.448090 
	C91.912254,81.661201 91.670799,85.430603 92.046700,89.137405 
	C92.169785,90.351112 93.897034,91.402145 94.974991,92.796051 
	C96.076408,92.885864 97.093506,92.707199 98.454010,92.449387 
	C99.495941,92.417458 100.194458,92.464676 100.987068,92.793495 
	C102.070343,92.762108 103.059532,92.449127 104.201653,91.743118 
	C104.518776,87.233017 104.682976,83.115929 105.247604,78.998810 
	C113.083664,77.846268 113.676842,76.327515 110.068703,65.895248 
	C112.860924,64.910194 115.699005,64.019226 118.443703,62.899368 
	C120.092918,62.226475 121.831360,61.455433 123.124420,60.281929 
	C128.387787,55.505196 127.885094,48.710850 128.551041,42.546238 
	C128.979553,38.579380 128.983383,35.246864 134.000000,35.000000 
M127.609741,62.797340 
	C127.214653,62.793156 126.819565,62.788971 126.424477,62.784786 
	C126.422974,62.948738 126.410484,63.255184 126.421547,63.256035 
	C126.814682,63.286343 127.210022,63.288029 127.609741,62.797340 
z"/>
<path fill="#FFFFFF" opacity="1.000000" stroke="none" 
	d="
M1.000000,32.000000 
	C1.000000,21.692133 1.000000,11.384265 1.000000,1.047302 
	C45.333344,1.047302 89.666679,1.047302 134.000000,1.047302 
	C134.000000,6.082271 134.000000,11.069937 133.579346,16.530022 
	C129.594711,17.119129 125.572861,16.211493 122.558990,17.558748 
	C115.578369,20.679209 108.226196,21.783581 100.502480,23.460457 
	C97.767403,23.507355 95.445732,23.405746 92.868805,22.961521 
	C91.663620,22.413057 90.705536,22.000647 89.765175,22.037693 
	C86.014618,22.185448 82.734749,22.303967 81.245132,17.450056 
	C80.853767,16.174778 76.786186,15.740437 74.348961,15.495420 
	C73.032043,15.363027 71.611259,16.501453 70.205544,16.971529 
	C65.429115,18.568783 60.751163,17.842897 55.820789,17.200674 
	C47.667992,16.138702 39.349003,16.100536 31.103767,16.158663 
	C28.729210,16.175404 26.367416,18.002571 23.599834,18.999739 
	C22.133392,18.999931 21.066887,19.000080 19.798241,18.751822 
	C18.063389,20.961998 15.716274,23.261808 15.198383,25.918240 
	C14.507853,29.460194 12.901570,31.250185 9.625975,31.628265 
	C6.774339,31.957413 3.877092,31.891401 1.000000,32.000000 
z"/>
<path fill="#FDFEFD" opacity="1.000000" stroke="none" 
	d="
M1.000000,32.468658 
	C3.877092,31.891401 6.774339,31.957413 9.625975,31.628265 
	C12.901570,31.250185 14.507853,29.460194 15.198383,25.918240 
	C15.716274,23.261808 18.063389,20.961998 19.799204,19.142021 
	C20.647232,20.888424 21.312872,21.984800 21.931635,23.107021 
	C22.643028,24.397245 23.312944,25.710337 23.764967,27.025085 
	C23.529057,27.036676 23.056726,27.029285 22.673058,27.019054 
	C17.971622,27.536900 17.577799,27.913694 18.058130,31.367805 
	C18.022310,32.133640 18.004751,32.571316 17.728619,33.149555 
	C16.695959,33.876469 15.921870,34.462818 14.778864,35.066185 
	C12.140869,34.787708 9.871793,34.492210 6.891027,34.104034 
	C6.133812,37.293991 4.070100,41.127800 9.049513,44.245491 
	C9.037070,44.476612 9.021027,44.939392 9.095385,45.153152 
	C9.320553,45.637672 9.534719,45.841995 9.986128,46.060162 
	C10.160014,46.140446 10.536993,46.208366 10.466448,46.507969 
	C10.237966,47.185825 10.080030,47.564079 9.555847,48.025642 
	C8.452160,53.076015 7.714723,58.043072 6.752606,63.181152 
	C7.008908,63.901562 7.489889,64.450958 7.996966,65.386581 
	C8.364125,67.516365 8.705190,69.259903 8.642097,71.009369 
	C3.506759,71.899445 5.009482,74.887695 5.772266,78.016647 
	C8.296720,78.016647 10.612206,78.016647 13.189266,78.025467 
	C13.625271,78.030151 13.799704,78.026031 14.089952,78.149155 
	C14.205770,78.276398 14.301413,78.606964 14.188694,78.969894 
	C14.043509,79.583168 14.011042,79.833504 13.785862,80.339920 
	C13.394592,81.681335 12.722732,83.509727 13.073285,83.733017 
	C15.596855,85.340469 18.327724,86.622467 21.045860,88.348747 
	C24.391266,92.044899 27.364540,96.297684 33.429119,92.946426 
	C35.232628,93.292198 36.651566,93.627930 38.070503,93.963654 
	C36.092152,94.974686 34.132462,96.795166 32.131859,96.841293 
	C26.659637,96.967491 21.170179,96.346375 14.927813,95.976135 
	C17.914795,86.637070 10.485127,85.549614 5.322086,82.599380 
	C4.051311,81.873245 2.896850,80.943558 1.344458,80.053726 
	C1.000000,64.312439 1.000000,48.624878 1.000000,32.468658 
z"/>
<path fill="#FDFEFD" opacity="1.000000" stroke="none" 
	d="
M134.000000,34.545891 
	C128.983383,35.246864 128.979553,38.579380 128.551041,42.546238 
	C127.885094,48.710850 128.387787,55.505196 123.124420,60.281929 
	C121.831360,61.455433 120.092918,62.226475 118.443703,62.899368 
	C115.699005,64.019226 112.860924,64.910194 110.068703,65.895248 
	C113.676842,76.327515 113.083664,77.846268 105.119659,78.562355 
	C104.634209,74.858849 104.677132,71.591743 104.846764,67.904442 
	C103.685417,61.782005 108.277840,59.467762 111.316772,56.154575 
	C112.720802,54.623844 113.473358,52.495564 114.667603,50.400536 
	C115.160370,49.730549 115.506821,49.298237 116.196716,48.851646 
	C116.881630,48.131660 117.223099,47.425953 117.598846,46.689903 
	C117.633133,46.659561 117.666550,46.574303 117.908432,46.620655 
	C118.492805,46.577461 118.727821,46.367641 119.029007,45.747826 
	C119.445480,44.619530 119.688293,43.780952 119.961151,42.713806 
	C119.991188,42.485237 120.069748,42.030910 120.392776,42.024551 
	C121.773376,41.318848 122.830948,40.619507 124.194237,39.920731 
	C124.656731,39.278381 124.813522,38.635464 124.993469,37.750282 
	C125.016632,37.508011 125.100014,37.028461 125.388527,36.858147 
	C127.448975,33.787983 129.220901,30.888138 131.000900,27.726667 
	C131.014618,27.290636 131.020248,27.116228 131.173035,26.661953 
	C132.213486,25.921389 133.106735,25.460693 134.000000,25.000000 
	C134.000000,28.030594 134.000000,31.061188 134.000000,34.545891 
z"/>
<path fill="#F0F5F6" opacity="1.000000" stroke="none" 
	d="
M130.992828,27.988293 
	C129.220901,30.888138 127.448975,33.787983 125.355110,36.525799 
	C125.033180,35.372311 125.033180,34.380852 125.033180,32.343594 
	C121.246361,37.075031 118.102722,41.002834 114.852936,45.147255 
	C114.604858,45.667965 114.383415,45.894238 113.830124,46.127739 
	C113.404160,46.510609 113.230522,46.808426 112.883484,47.375679 
	C111.149429,49.101185 109.588783,50.557255 107.679001,52.037785 
	C105.451241,52.605698 103.572609,53.149147 101.923248,53.390526 
	C102.751930,50.483891 103.817879,47.888332 103.868370,45.273170 
	C104.065788,35.046661 103.946480,35.044357 114.119553,35.048000 
	C120.351044,35.050232 125.256378,30.660084 126.905869,23.932041 
	C129.523270,23.613520 131.761627,23.306759 134.000000,23.000000 
	C134.000000,23.444445 134.000000,23.888889 134.000000,24.666668 
	C133.106735,25.460693 132.213486,25.921389 130.921417,26.697617 
	C130.250076,27.168139 129.977554,27.323128 129.705032,27.478115 
	C130.134293,27.648174 130.563568,27.818233 130.992828,27.988293 
z"/>
<path fill="#FDFEFD" opacity="1.000000" stroke="none" 
	d="
M134.000000,22.571537 
	C131.761627,23.306759 129.523270,23.613520 126.409531,23.852417 
	C117.328072,23.627018 109.121979,23.469484 100.915878,23.311949 
	C108.226196,21.783581 115.578369,20.679209 122.558990,17.558748 
	C125.572861,16.211493 129.594711,17.119129 133.579346,17.001219 
	C134.000000,18.714357 134.000000,20.428717 134.000000,22.571537 
z"/>
<path fill="#393939" opacity="1.000000" stroke="none" 
	d="
M104.720055,68.324646 
	C104.677132,71.591743 104.634209,74.858849 104.719223,78.562393 
	C104.682976,83.115929 104.518776,87.233017 103.799248,91.697449 
	C102.460274,92.200500 101.676628,92.356201 100.892982,92.511902 
	C100.194458,92.464676 99.495941,92.417458 98.069992,92.274178 
	C96.525261,92.294601 95.707970,92.411095 94.890671,92.527580 
	C93.897034,91.402145 92.169785,90.351112 92.046700,89.137405 
	C91.670799,85.430603 91.912254,81.661201 92.185753,77.259552 
	C95.312737,74.207825 98.093414,71.714478 101.064842,69.474113 
	C102.025833,68.749557 103.487442,68.688965 104.720055,68.324646 
z"/>
<path fill="#357DAD" opacity="1.000000" stroke="none" 
	d="
M77.848740,81.890396 
	C77.372711,82.129211 76.896683,82.368027 75.920959,82.787064 
	C75.148125,83.227982 74.874985,83.488678 74.601837,83.749374 
	C74.601837,83.749374 74.280617,83.765320 73.881332,83.840904 
	C73.235985,84.153137 72.989929,84.389786 72.743881,84.626434 
	C72.743881,84.626434 72.682289,84.655113 72.303009,84.666725 
	C70.091820,85.613510 68.259903,86.548683 66.427994,87.483864 
	C66.101013,87.554153 65.774040,87.624443 64.836227,87.805496 
	C54.051746,91.545959 43.675198,93.365967 32.586220,91.294174 
	C31.870047,91.104439 31.445292,91.051361 30.811470,90.738029 
	C29.743637,90.292175 28.884874,90.106567 27.795429,89.709969 
	C26.418934,88.980515 25.273123,88.462059 24.115158,87.696770 
	C24.103003,87.449936 24.067787,86.956970 24.477192,86.948502 
	C26.036409,87.054832 27.313349,86.882721 28.316988,87.327423 
	C43.663315,94.127266 57.585541,88.533142 71.370270,82.336868 
	C77.442299,79.607483 83.298256,76.397430 89.190948,73.641434 
	C88.927605,74.148087 88.829720,74.452377 88.835922,74.790154 
	C87.384750,75.725792 85.933586,76.661430 83.932297,77.885315 
	C81.537697,79.412498 79.693214,80.651443 77.848740,81.890396 
z"/>
<path fill="#BDD1D9" opacity="1.000000" stroke="none" 
	d="
M89.118431,74.938881 
	C88.829720,74.452377 88.927605,74.148087 89.187439,73.614990 
	C89.245300,73.352715 89.253883,73.302139 89.542358,73.261002 
	C90.244576,72.834793 90.658325,72.449730 91.030807,72.046547 
	C90.989540,72.028427 91.063484,72.082748 91.401253,72.024292 
	C97.447731,66.286812 103.156433,60.607796 109.198830,54.864380 
	C111.195435,53.412727 112.858360,52.025467 114.521278,50.638206 
	C113.473358,52.495564 112.720802,54.623844 111.316772,56.154575 
	C108.277840,59.467762 103.685417,61.782005 104.846764,67.904442 
	C103.487442,68.688965 102.025833,68.749557 101.064842,69.474113 
	C98.093414,71.714478 95.312737,74.207825 92.180145,76.791489 
	C91.068512,76.349220 90.234726,75.718414 89.118431,74.938881 
z"/>
<path fill="#C1E5F5" opacity="1.000000" stroke="none" 
	d="
M32.877640,91.430832 
	C43.675198,93.365967 54.051746,91.545959 64.621307,87.938232 
	C63.561382,88.866463 62.105545,89.772728 59.968239,90.835739 
	C57.844292,91.632500 56.401817,92.272507 54.959343,92.912514 
	C54.219467,92.934921 53.479595,92.957329 52.075001,93.010231 
	C50.926403,93.330368 50.442524,93.620010 49.958645,93.909653 
	C46.297478,93.923027 42.636311,93.936401 38.522823,93.956711 
	C36.651566,93.627930 35.232628,93.292198 33.404221,92.695511 
	C32.955715,92.099976 32.916679,91.765404 32.877640,91.430832 
z"/>
<path fill="#BAE0F1" opacity="1.000000" stroke="none" 
	d="
M78.241348,81.938889 
	C79.693214,80.651443 81.537697,79.412498 83.720024,78.124474 
	C84.028763,81.845749 80.812569,81.197273 78.241348,81.938889 
z"/>
<path fill="#C1E5F5" opacity="1.000000" stroke="none" 
	d="
M66.829773,87.621384 
	C68.259903,86.548683 70.091820,85.613510 72.269585,84.660675 
	C70.820808,85.681648 69.026184,86.720276 66.829773,87.621384 
z"/>
<path fill="#FAFEFC" opacity="1.000000" stroke="none" 
	d="
M55.158798,93.177338 
	C56.401817,92.272507 57.844292,91.632500 59.642212,90.986176 
	C58.451191,91.800629 56.904724,92.621391 55.158798,93.177338 
z"/>
<path fill="#BDD1D9" opacity="1.000000" stroke="none" 
	d="
M100.987068,92.793495 
	C101.676628,92.356201 102.460274,92.200500 103.646324,92.090469 
	C103.059532,92.449127 102.070343,92.762108 100.987068,92.793495 
z"/>
<path fill="#BDD1D9" opacity="1.000000" stroke="none" 
	d="
M94.974991,92.796051 
	C95.707970,92.411095 96.525261,92.294601 97.726578,92.353333 
	C97.093506,92.707199 96.076408,92.885864 94.974991,92.796051 
z"/>
<path fill="#FAFEFC" opacity="1.000000" stroke="none" 
	d="
M50.123138,94.153267 
	C50.442524,93.620010 50.926403,93.330368 51.705704,93.034935 
	C51.429962,93.485054 50.858795,93.940971 50.123138,94.153267 
z"/>
<path fill="#FDFEFD" opacity="1.000000" stroke="none" 
	d="
M127.607399,63.045532 
	C127.210022,63.288029 126.814682,63.286343 126.421547,63.256035 
	C126.410484,63.255184 126.422974,62.948738 126.424477,62.784786 
	C126.819565,62.788971 127.214653,62.793156 127.607399,63.045532 
z"/>
<path fill="#C1E5F5" opacity="1.000000" stroke="none" 
	d="
M74.904091,83.766899 
	C74.874985,83.488678 75.148125,83.227982 75.711563,82.952965 
	C75.736679,83.220573 75.471512,83.502502 74.904091,83.766899 
z"/>
<path fill="#C1E5F5" opacity="1.000000" stroke="none" 
	d="
M73.017929,84.676880 
	C72.989929,84.389786 73.235985,84.153137 73.749001,83.932266 
	C73.774635,84.207817 73.533302,84.467575 73.017929,84.676880 
z"/>
<path fill="#393939" opacity="1.000000" stroke="none" 
	d="
M100.502480,23.460457 
	C109.121979,23.469484 117.328072,23.627018 126.030502,23.864178 
	C125.256378,30.660084 120.351044,35.050232 114.119553,35.048000 
	C103.946480,35.044357 104.065788,35.046661 103.868370,45.273170 
	C103.817879,47.888332 102.751930,50.483891 101.601807,53.476707 
	C98.371941,55.961010 95.692787,58.057064 92.701813,59.867950 
	C92.173683,56.702011 91.957375,53.821239 91.813385,50.629662 
	C91.838417,49.898746 91.791138,49.478642 91.880646,48.623814 
	C91.922516,45.772316 91.827606,43.355545 91.805695,40.582867 
	C91.833328,39.505077 91.787971,38.783199 91.874237,37.687359 
	C90.979942,36.643471 89.954025,35.973541 88.481087,35.217613 
	C84.693047,35.226379 81.352036,35.321144 77.605034,35.283913 
	C75.494003,35.086018 73.788948,35.020123 72.054947,34.500809 
	C71.895363,31.006639 71.764725,27.965887 71.758347,24.665176 
	C71.898880,24.213827 71.915154,24.022432 72.403473,23.802128 
	C79.625031,23.616856 86.374542,23.460497 93.124054,23.304138 
	C95.445732,23.405746 97.767403,23.507355 100.502480,23.460457 
z"/>
<path fill="#FDFEFD" opacity="1.000000" stroke="none" 
	d="
M92.868805,22.961521 
	C86.374542,23.460497 79.625031,23.616856 72.259995,23.492104 
	C67.816368,18.613159 66.745468,18.803135 62.329525,25.416662 
	C61.332371,24.241238 60.402164,23.269611 59.614910,22.193415 
	C57.212349,18.909046 55.073360,19.157545 52.665676,23.010431 
	C51.884678,23.016525 51.438416,23.021839 50.642826,23.007957 
	C49.195107,23.190828 48.096722,23.392895 46.658916,23.650311 
	C45.879528,23.816874 45.439556,23.928091 44.611347,23.943638 
	C43.164131,23.762829 42.105152,23.677692 40.745644,23.378551 
	C38.963818,23.084652 37.482517,23.004755 35.952385,22.566395 
	C34.814987,21.500523 33.726425,20.793114 32.637859,20.085705 
	C32.108875,21.075571 31.579893,22.065437 31.042179,23.052452 
	C31.033447,23.049601 31.049583,23.068741 30.649910,23.048424 
	C26.982367,23.522987 24.976263,22.060112 23.999771,18.999695 
	C26.367416,18.002571 28.729210,16.175404 31.103767,16.158663 
	C39.349003,16.100536 47.667992,16.138702 55.820789,17.200674 
	C60.751163,17.842897 65.429115,18.568783 70.205544,16.971529 
	C71.611259,16.501453 73.032043,15.363027 74.348961,15.495420 
	C76.786186,15.740437 80.853767,16.174778 81.245132,17.450056 
	C82.734749,22.303967 86.014618,22.185448 89.765175,22.037693 
	C90.705536,22.000647 91.663620,22.413057 92.868805,22.961521 
z"/>
<path fill="#FAFEFC" opacity="1.000000" stroke="none" 
	d="
M23.599834,18.999739 
	C24.976263,22.060112 26.982367,23.522987 30.483231,23.347313 
	C28.477774,24.782179 26.239326,25.897837 24.000877,27.013496 
	C23.312944,25.710337 22.643028,24.397245 21.931635,23.107021 
	C21.312872,21.984800 20.647232,20.888424 20.001343,19.390427 
	C21.066887,19.000080 22.133392,18.999931 23.599834,18.999739 
z"/>
<path fill="#377FAC" opacity="1.000000" stroke="none" 
	d="
M14.301413,78.606964 
	C14.301413,78.606964 14.205770,78.276398 14.069019,77.878662 
	C13.671139,77.247513 13.410009,77.014091 13.104841,76.581085 
	C13.060801,76.381493 12.826124,76.046776 12.831226,75.779037 
	C12.598750,75.261406 12.361171,75.011520 12.090512,74.575836 
	C12.057433,74.390038 11.844050,74.078697 11.848645,73.693802 
	C8.459831,65.062714 8.514743,56.554001 9.922094,47.942333 
	C10.080030,47.564079 10.237966,47.185825 10.639875,46.424709 
	C11.046866,45.842213 11.216627,45.648491 11.546813,45.596992 
	C11.700495,45.733303 12.008254,46.005474 11.998890,46.444382 
	C11.840086,48.521286 11.782135,50.173740 11.525999,51.794880 
	C10.119041,60.699776 10.967935,69.155090 16.172554,76.843674 
	C18.083643,79.666847 19.821634,82.607208 21.316181,85.432381 
	C19.946306,84.598450 18.898834,83.826248 17.811951,82.810349 
	C17.591467,82.250496 17.318769,82.090057 16.857861,81.857239 
	C16.573357,81.343857 16.321312,81.136520 15.964125,80.743935 
	C15.652061,80.277809 15.381010,80.074875 15.117678,79.897072 
	C15.125396,79.922195 15.128533,79.860435 15.085861,79.598984 
	C14.795930,79.094009 14.548672,78.850487 14.301413,78.606964 
z"/>
<path fill="#FAFEFC" opacity="1.000000" stroke="none" 
	d="
M9.061955,44.014366 
	C4.070100,41.127800 6.133812,37.293991 6.891027,34.104034 
	C9.871793,34.492210 12.140869,34.787708 14.742836,35.386753 
	C14.754391,36.464809 14.433055,37.239319 13.848124,38.175552 
	C13.513048,38.725456 13.441570,39.113632 13.351076,39.655087 
	C13.332059,39.808369 13.136318,40.047352 12.796254,40.064968 
	C11.324778,41.393177 10.193366,42.703773 9.061955,44.014366 
z"/>
<path fill="#C1E5F5" opacity="1.000000" stroke="none" 
	d="
M9.555845,48.025642 
	C8.514743,56.554001 8.459831,65.062714 11.523338,73.642807 
	C10.477710,72.985626 9.761983,71.994537 9.046254,71.003448 
	C8.705190,69.259903 8.364125,67.516365 7.987033,65.086540 
	C7.626431,63.936886 7.301858,63.473507 6.977285,63.010132 
	C7.714723,58.043072 8.452160,53.076015 9.555845,48.025642 
z"/>
<path fill="#C5E8F6" opacity="1.000000" stroke="none" 
	d="
M23.764967,27.025085 
	C26.239326,25.897837 28.477774,24.782179 30.882904,23.367630 
	C31.049583,23.068741 31.033447,23.049601 31.453445,23.055786 
	C33.249371,23.016266 34.625294,22.970562 36.001221,22.924858 
	C37.482517,23.004755 38.963818,23.084652 40.523422,23.578876 
	C40.425201,24.085819 40.248672,24.178429 39.668098,24.184170 
	C32.699280,24.881990 26.374874,26.246492 21.615248,31.459824 
	C21.605091,31.509766 21.513680,31.554852 21.231447,31.587589 
	C20.593748,32.041016 20.238281,32.461704 19.870239,32.879875 
	C19.857668,32.877365 19.839380,32.852184 19.527695,32.890869 
	C18.806404,32.956032 18.396797,32.982513 17.987190,33.008991 
	C18.004751,32.571316 18.022310,32.133640 18.344522,31.220100 
	C20.118361,29.505917 21.587543,28.267603 23.056728,27.029285 
	C23.056726,27.029285 23.529057,27.036676 23.764967,27.025085 
z"/>
<path fill="#FAFEFC" opacity="1.000000" stroke="none" 
	d="
M8.642099,71.009369 
	C9.761983,71.994537 10.477710,72.985626 11.518744,74.027710 
	C11.844050,74.078697 12.057433,74.390038 12.090808,74.842194 
	C12.358163,75.545166 12.592143,75.795967 12.826124,76.046776 
	C12.826124,76.046776 13.060801,76.381493 13.029988,76.887512 
	C12.975348,77.601242 12.951520,77.808945 12.927692,78.016647 
	C10.612206,78.016647 8.296720,78.016647 5.772266,78.016647 
	C5.009482,74.887695 3.506759,71.899445 8.642099,71.009369 
z"/>
<path fill="#FAFEFC" opacity="1.000000" stroke="none" 
	d="
M17.851360,83.054047 
	C18.898834,83.826248 19.946306,84.598450 21.302992,85.585358 
	C21.612206,85.800064 21.607376,86.108871 21.412992,86.272171 
	C21.168083,86.934555 21.117558,87.433655 21.048450,87.951447 
	C21.029869,87.970146 20.992847,88.007690 20.992847,88.007690 
	C18.327724,86.622467 15.596855,85.340469 13.073285,83.733017 
	C12.722732,83.509727 13.394592,81.681335 14.076668,80.300194 
	C14.749635,79.956413 14.939084,79.908424 15.128533,79.860435 
	C15.128533,79.860435 15.125396,79.922195 15.155035,80.158714 
	C15.458162,80.599205 15.731650,80.803169 16.005138,81.007133 
	C16.321312,81.136520 16.573357,81.343857 16.928591,82.081360 
	C17.270662,82.818916 17.522480,82.992409 17.851360,83.054047 
z"/>
<path fill="#FAFEFC" opacity="1.000000" stroke="none" 
	d="
M32.586220,91.294174 
	C32.916679,91.765404 32.955715,92.099976 33.019653,92.685471 
	C27.364540,96.297684 24.391266,92.044899 21.045860,88.348747 
	C20.992847,88.007690 21.029869,87.970146 21.429249,87.968735 
	C22.594854,87.959412 23.361082,87.951508 24.127312,87.943604 
	C25.273123,88.462059 26.418934,88.980515 27.895205,90.000702 
	C29.157290,90.667709 30.088915,90.832993 31.020538,90.998276 
	C31.445292,91.051361 31.870047,91.104439 32.586220,91.294174 
z"/>
<path fill="#377FAC" opacity="1.000000" stroke="none" 
	d="
M17.728619,33.149555 
	C18.396797,32.982513 18.806404,32.956032 19.582066,33.264912 
	C17.301498,37.735336 14.654877,41.870407 12.008255,46.005474 
	C12.008254,46.005474 11.700495,45.733303 11.650303,45.261028 
	C12.112181,43.208286 12.624249,41.627819 13.136318,40.047352 
	C13.136318,40.047352 13.332059,39.808369 13.586351,39.470711 
	C13.931004,38.759979 14.021361,38.386902 14.111719,38.013824 
	C14.433055,37.239319 14.754391,36.464809 15.111753,35.369736 
	C15.921870,34.462818 16.695959,33.876469 17.728619,33.149555 
z"/>
<path fill="#C1E5F5" opacity="1.000000" stroke="none" 
	d="
M12.796254,40.064968 
	C12.624249,41.627819 12.112181,43.208286 11.496622,45.124718 
	C11.216627,45.648491 11.046866,45.842213 10.710421,46.125107 
	C10.536993,46.208366 10.160014,46.140446 9.946976,45.830864 
	C9.570617,45.236347 9.332980,45.042385 9.021027,44.939392 
	C9.021027,44.939392 9.037070,44.476612 9.049513,44.245491 
	C10.193366,42.703773 11.324778,41.393177 12.796254,40.064968 
z"/>
<path fill="#FAFEFC" opacity="1.000000" stroke="none" 
	d="
M22.673058,27.019056 
	C21.587543,28.267603 20.118361,29.505917 18.362783,30.891937 
	C17.577799,27.913694 17.971622,27.536900 22.673058,27.019056 
z"/>
<path fill="#FAFEFC" opacity="1.000000" stroke="none" 
	d="
M6.752606,63.181152 
	C7.301858,63.473507 7.626431,63.936886 7.960938,64.700302 
	C7.489889,64.450958 7.008908,63.901562 6.752606,63.181152 
z"/>
<path fill="#FAFEFC" opacity="1.000000" stroke="none" 
	d="
M9.095385,45.153152 
	C9.332980,45.042385 9.570617,45.236347 9.773088,45.750580 
	C9.534719,45.841995 9.320553,45.637672 9.095385,45.153152 
z"/>
<path fill="#C1E5F5" opacity="1.000000" stroke="none" 
	d="
M15.085861,79.598984 
	C14.939084,79.908424 14.749635,79.956413 14.269380,80.044128 
	C14.011042,79.833504 14.043509,79.583168 14.188694,78.969894 
	C14.548672,78.850487 14.795930,79.094009 15.085861,79.598984 
z"/>
<path fill="#C1E5F5" opacity="1.000000" stroke="none" 
	d="
M13.189266,78.025467 
	C12.951520,77.808945 12.975348,77.601242 13.074028,77.087112 
	C13.410009,77.014091 13.671139,77.247513 13.953201,77.751419 
	C13.799704,78.026031 13.625271,78.030151 13.189266,78.025467 
z"/>
<path fill="#BFD9E5" opacity="1.000000" stroke="none" 
	d="
M114.959091,44.930641 
	C118.102722,41.002834 121.246361,37.075031 125.033180,32.343594 
	C125.033180,34.380852 125.033180,35.372311 125.066597,36.696114 
	C125.100014,37.028461 125.016632,37.508011 124.746277,37.907276 
	C124.280121,38.844418 124.084320,39.382294 123.888527,39.920166 
	C122.830948,40.619507 121.773376,41.318848 120.222267,42.089081 
	C119.652313,42.250011 119.493874,42.391312 119.512878,42.421703 
	C119.630051,42.609158 119.787224,42.771614 119.931107,42.942375 
	C119.688293,43.780952 119.445480,44.619530 118.730438,45.747261 
	C118.058533,46.049023 117.858856,46.061626 117.495255,45.802399 
	C116.540581,45.330593 115.749840,45.130619 114.959091,44.930641 
z"/>
<path fill="#5587A0" opacity="1.000000" stroke="none" 
	d="
M114.852943,45.147259 
	C115.749840,45.130619 116.540581,45.330593 117.467918,45.927055 
	C117.604515,46.323547 117.666550,46.574303 117.666550,46.574303 
	C117.666550,46.574303 117.633133,46.659561 117.306335,46.767220 
	C116.604118,47.538559 116.228699,48.202240 115.853271,48.865925 
	C115.506821,49.298237 115.160370,49.730549 114.667603,50.400536 
	C112.858360,52.025467 111.195435,53.412727 108.990967,54.767284 
	C108.201401,54.528008 108.048943,54.265816 107.998032,53.625549 
	C108.012054,52.873173 108.020096,52.443249 108.028137,52.013329 
	C109.588783,50.557255 111.149429,49.101185 113.130043,47.283287 
	C113.727493,46.628536 113.904968,46.335613 114.082451,46.042686 
	C114.383415,45.894238 114.604858,45.667965 114.852943,45.147259 
z"/>
<path fill="#BDD1D9" opacity="1.000000" stroke="none" 
	d="
M116.196716,48.851646 
	C116.228699,48.202240 116.604118,47.538559 117.272057,46.797562 
	C117.223099,47.425953 116.881630,48.131660 116.196716,48.851646 
z"/>
<path fill="#F0F5F6" opacity="1.000000" stroke="none" 
	d="
M124.194237,39.920734 
	C124.084320,39.382294 124.280121,38.844418 124.723114,38.149544 
	C124.813522,38.635464 124.656731,39.278381 124.194237,39.920734 
z"/>
<path fill="#D8D8D7" opacity="1.000000" stroke="none" 
	d="
M131.000900,27.726669 
	C130.563568,27.818233 130.134293,27.648174 129.705032,27.478115 
	C129.977554,27.323128 130.250076,27.168139 130.774231,26.977486 
	C131.020248,27.116228 131.014618,27.290636 131.000900,27.726669 
z"/>
<path fill="#BDD1D9" opacity="1.000000" stroke="none" 
	d="
M119.961143,42.713806 
	C119.787224,42.771614 119.630051,42.609158 119.512878,42.421703 
	C119.493874,42.391312 119.652313,42.250011 119.899239,42.095444 
	C120.069748,42.030910 119.991188,42.485237 119.961143,42.713806 
z"/>
<path fill="#BDD1D9" opacity="1.000000" stroke="none" 
	d="
M117.908432,46.620655 
	C117.666550,46.574303 117.604515,46.323547 117.631851,46.198891 
	C117.858856,46.061626 118.058533,46.049023 118.556778,46.036980 
	C118.727821,46.367641 118.492805,46.577461 117.908432,46.620655 
z"/>
<path fill="#BFD9E5" opacity="1.000000" stroke="none" 
	d="
M107.679001,52.037788 
	C108.020096,52.443249 108.012054,52.873173 107.658218,53.696732 
	C105.888184,55.168514 104.516586,56.326122 103.030342,57.310661 
	C97.444565,61.010857 91.821396,64.654617 86.268341,67.970657 
	C88.012299,65.753052 89.700150,63.884327 91.650887,61.958702 
	C92.280388,61.318913 92.647011,60.736015 93.013634,60.153122 
	C95.692787,58.057064 98.371941,55.961010 101.372536,53.778778 
	C103.572609,53.149147 105.451241,52.605698 107.679001,52.037788 
z"/>
<path fill="#BFD9E5" opacity="1.000000" stroke="none" 
	d="
M113.830124,46.127739 
	C113.904968,46.335613 113.727493,46.628536 113.303452,47.013851 
	C113.230522,46.808426 113.404160,46.510609 113.830124,46.127739 
z"/>
<path fill="#0670B9" opacity="1.000000" stroke="none" 
	d="
M11.998890,46.444382 
	C14.654877,41.870407 17.301498,37.735336 19.893749,33.226227 
	C19.839380,32.852184 19.857668,32.877365 20.201664,32.900238 
	C20.868334,32.467022 21.191006,32.010937 21.513680,31.554852 
	C21.513680,31.554852 21.605091,31.509766 21.979652,31.620436 
	C27.874683,29.746134 33.404453,27.786070 38.900021,25.734406 
	C39.402760,25.546717 39.686634,24.772757 40.072140,24.271040 
	C40.248672,24.178429 40.425201,24.085819 40.823952,23.792881 
	C42.105152,23.677692 43.164131,23.762829 44.681587,24.314173 
	C46.141068,25.173233 47.134327,25.587330 48.144440,25.955162 
	C51.964771,27.346350 55.979603,28.373783 59.513935,30.289528 
	C60.786877,30.979513 60.909733,33.791279 61.557442,35.634754 
	C59.629692,35.839775 57.705593,36.154591 55.773159,36.218903 
	C53.844719,36.283085 51.907921,36.096313 49.601067,36.012787 
	C48.498600,35.847370 47.769855,35.688728 46.895306,35.182571 
	C46.628380,34.720615 46.521744,34.528408 46.384087,34.502762 
	C30.209723,31.490694 16.066219,44.292091 19.230097,63.456234 
	C19.389246,64.420219 21.250561,65.103195 22.435837,66.131424 
	C22.552351,66.345825 22.624491,66.828499 22.305851,66.935661 
	C22.624084,68.349991 23.260958,69.657158 24.025528,71.263069 
	C25.190290,72.201721 26.227352,72.841621 27.268452,73.597397 
	C27.272488,73.713272 27.499207,73.761932 27.364838,74.106339 
	C29.827650,76.290810 32.424835,78.130859 35.228596,80.267868 
	C38.401730,81.377762 41.384518,82.933929 44.331913,82.869560 
	C54.743446,82.642151 64.785431,80.221336 74.412025,76.241158 
	C79.716782,74.047874 84.935783,71.647194 90.487892,69.210808 
	C90.696182,70.250092 90.879829,71.166420 91.063484,72.082748 
	C91.063484,72.082748 90.989540,72.028427 90.709869,72.034760 
	C90.038094,72.461449 89.645988,72.881798 89.253883,73.302139 
	C89.253883,73.302139 89.245300,73.352715 89.248810,73.379166 
	C83.298256,76.397430 77.442299,79.607483 71.370270,82.336868 
	C57.585541,88.533142 43.663315,94.127266 28.316988,87.327423 
	C27.313349,86.882721 26.036409,87.054832 24.160194,86.857193 
	C22.824987,86.552528 22.216181,86.330704 21.607376,86.108871 
	C21.607376,86.108871 21.612206,85.800064 21.625397,85.647087 
	C19.821634,82.607208 18.083643,79.666847 16.172554,76.843674 
	C10.967935,69.155090 10.119041,60.699776 11.525999,51.794880 
	C11.782135,50.173740 11.840086,48.521286 11.998890,46.444382 
z"/>
<path fill="#C1E5F5" opacity="1.000000" stroke="none" 
	d="
M21.412992,86.272171 
	C22.216181,86.330704 22.824987,86.552528 23.750790,86.865662 
	C24.067787,86.956970 24.103003,87.449936 24.115156,87.696770 
	C23.361082,87.951508 22.594854,87.959412 21.447830,87.950035 
	C21.117558,87.433655 21.168083,86.934555 21.412992,86.272171 
z"/>
<path fill="#C1E5F5" opacity="1.000000" stroke="none" 
	d="
M30.811470,90.738029 
	C30.088915,90.832993 29.157290,90.667709 28.125889,90.211700 
	C28.884874,90.106567 29.743637,90.292175 30.811470,90.738029 
z"/>
<path fill="#357DAD" opacity="1.000000" stroke="none" 
	d="
M91.401253,72.024292 
	C90.879829,71.166420 90.696182,70.250092 90.487892,69.210808 
	C84.935783,71.647194 79.716782,74.047874 74.412025,76.241158 
	C64.785431,80.221336 54.743446,82.642151 44.331913,82.869560 
	C41.384518,82.933929 38.401730,81.377762 35.476692,80.089676 
	C35.675369,79.484863 35.832527,79.355194 36.311184,79.384369 
	C37.102291,79.604965 37.571907,79.666710 38.262432,79.844116 
	C38.483345,79.959778 38.981358,79.933144 39.312798,80.032372 
	C40.099308,80.099319 40.554375,80.067047 41.396324,80.128433 
	C42.841194,80.208221 43.899181,80.194344 45.233696,80.379883 
	C48.377171,80.266068 51.244122,79.952812 54.504898,79.633583 
	C55.922794,79.409081 56.946873,79.190559 58.231773,79.056343 
	C58.671108,79.102547 58.849621,79.064438 59.361065,79.054459 
	C60.296646,78.828720 60.899292,78.574844 61.822754,78.346756 
	C62.764664,78.213829 63.385765,78.055122 64.260727,77.912598 
	C64.661125,77.843452 64.807671,77.758118 65.223938,77.680557 
	C66.078514,77.350021 66.663368,77.011711 67.553879,76.629807 
	C68.234947,76.420776 68.610352,76.255325 69.250717,76.140076 
	C69.686600,76.135117 69.857513,76.079971 70.286804,76.011154 
	C70.805077,75.785248 71.064980,75.573021 71.655159,75.309372 
	C72.991264,74.830032 73.997093,74.402107 75.333801,73.996239 
	C76.787270,73.399055 77.909866,72.779816 79.314537,72.083939 
	C80.094643,71.718468 80.592690,71.429626 81.357330,71.117676 
	C81.888145,70.866096 82.152374,70.637642 82.591331,70.369858 
	C82.766060,70.330528 83.056831,70.121346 83.330315,70.106583 
	C83.870338,69.854958 84.136879,69.618088 84.652893,69.290543 
	C85.338989,68.906425 85.775612,68.612976 86.212242,68.319527 
	C91.821396,64.654617 97.444565,61.010857 103.030342,57.310661 
	C104.516586,56.326122 105.888184,55.168514 107.652237,54.019188 
	C108.048943,54.265816 108.201401,54.528008 108.657280,54.831676 
	C103.156433,60.607796 97.447731,66.286812 91.401253,72.024292 
z"/>
<path fill="#357DAD" opacity="1.000000" stroke="none" 
	d="
M89.542358,73.261002 
	C89.645988,72.881798 90.038094,72.461449 90.751137,72.052887 
	C90.658325,72.449730 90.244576,72.834793 89.542358,73.261002 
z"/>
<path fill="#FEFEFE" opacity="1.000000" stroke="none" 
	d="
M81.090729,71.140785 
	C80.592690,71.429626 80.094643,71.718468 79.149384,71.817719 
	C77.469078,72.410149 76.236000,73.192162 75.002930,73.974182 
	C73.997093,74.402107 72.991264,74.830032 71.343201,75.177521 
	C70.477684,75.069168 70.254395,75.041245 69.786537,75.115005 
	C69.356560,75.507759 69.171158,75.798813 68.985756,76.089874 
	C68.610352,76.255325 68.234947,76.420776 67.385452,76.273163 
	C64.285828,76.647865 61.660282,77.335609 59.022263,78.018082 
	C59.009785,78.012794 59.019600,78.027885 58.785431,78.110504 
	C58.247173,78.370300 58.053734,78.629944 57.970947,78.972038 
	C56.946873,79.190559 55.922794,79.409081 54.313805,79.237854 
	C50.653431,78.294441 47.333393,76.130608 44.957172,80.180466 
	C43.899181,80.194344 42.841194,80.208221 41.344322,79.776321 
	C36.944111,77.532211 32.982780,75.733887 28.769508,73.884094 
	C28.178110,73.809059 27.838657,73.785492 27.499207,73.761932 
	C27.499207,73.761932 27.272488,73.713272 27.252787,73.293343 
	C27.136877,72.262604 27.040668,71.651802 26.953775,70.684578 
	C26.298262,69.571098 25.633432,68.814034 24.967886,68.046066 
	C24.967169,68.035156 24.936535,68.041542 24.948570,67.624023 
	C23.541853,61.033150 21.793446,54.842251 26.330175,48.971195 
	C31.713678,48.835392 31.034517,45.220814 31.403118,42.002403 
	C34.201195,40.662674 36.599846,39.324215 39.415718,37.978653 
	C41.223869,37.968853 42.614799,37.966152 44.004150,38.360855 
	C44.649193,40.580402 44.873718,43.588646 46.023201,43.997704 
	C49.208839,45.131359 52.775791,45.226566 56.209576,45.540340 
	C56.397835,45.557541 56.745445,43.830826 57.388268,42.925262 
	C58.495567,42.932026 59.233479,42.929394 60.027603,43.274040 
	C61.395588,43.397774 63.311558,43.643761 63.913769,42.868816 
	C66.424103,39.638462 69.073792,37.661724 73.481979,38.855778 
	C76.018463,39.542831 78.088684,38.650879 78.011017,35.415916 
	C81.352036,35.321144 84.693047,35.226379 88.468948,35.441383 
	C88.903839,35.751156 89.010826,36.186409 89.113388,36.352077 
	C89.382225,36.726452 89.590828,36.876194 89.994209,37.218327 
	C90.678642,37.666885 91.210632,37.864101 91.742622,38.061317 
	C91.787971,38.783199 91.833328,39.505077 91.433716,40.668419 
	C89.770760,43.899048 88.452042,46.697788 91.743858,49.058540 
	C91.791138,49.478642 91.838417,49.898746 91.431747,50.720757 
	C91.114540,54.753639 91.251266,58.384617 91.388000,62.015594 
	C89.700150,63.884327 88.012299,65.753052 86.268341,67.970657 
	C85.775612,68.612976 85.338989,68.906425 84.359604,69.247101 
	C83.563507,69.570007 83.310165,69.845673 83.056831,70.121346 
	C83.056831,70.121346 82.766060,70.330528 82.297913,70.315613 
	C81.583420,70.580727 81.337074,70.860756 81.090729,71.140785 
z"/>
<path fill="#FAFEFC" opacity="1.000000" stroke="none" 
	d="
M77.605034,35.283913 
	C78.088684,38.650879 76.018463,39.542831 73.481979,38.855778 
	C69.073792,37.661724 66.424103,39.638462 63.913769,42.868816 
	C63.311558,43.643761 61.395588,43.397774 60.030792,42.930199 
	C59.950195,41.779583 59.922626,41.320084 59.953743,40.901054 
	C60.012428,40.941525 59.880371,40.888325 60.257370,40.927704 
	C63.989826,40.394245 65.955360,38.566551 66.004807,35.006569 
	C66.000000,34.999847 66.013847,35.009430 66.336739,34.984272 
	C69.195404,31.556408 68.163719,29.943111 62.936928,29.046923 
	C62.968555,29.005518 62.943821,29.106739 62.813911,28.830452 
	C62.307220,28.442192 61.930443,28.330221 61.395916,28.199123 
	C61.238171,28.179995 61.017487,27.951302 60.896400,27.718990 
	C60.455563,27.380259 60.135811,27.273836 59.876770,27.137953 
	C59.937481,27.108494 59.864975,27.222321 59.762337,26.855568 
	C58.554707,26.168436 57.449707,25.848061 56.102577,25.541981 
	C55.531830,25.505743 55.240437,25.373327 54.896057,24.866489 
	C54.204041,24.052523 53.602226,23.531086 53.000416,23.009651 
	C55.073360,19.157545 57.212349,18.909046 59.614910,22.193415 
	C60.402164,23.269611 61.332371,24.241238 62.329525,25.416662 
	C66.745468,18.803135 67.816368,18.613159 71.787949,23.521015 
	C71.915154,24.022432 71.898880,24.213827 71.406197,24.800091 
	C70.128517,28.588301 68.242973,32.109863 72.083900,34.954227 
	C73.788948,35.020123 75.494003,35.086018 77.605034,35.283913 
z"/>
<path fill="#D8D8D7" opacity="1.000000" stroke="none" 
	d="
M91.650887,61.958702 
	C91.251266,58.384617 91.114540,54.753639 91.359436,51.031567 
	C91.957375,53.821239 92.173683,56.702011 92.701813,59.867950 
	C92.647011,60.736015 92.280388,61.318913 91.650887,61.958702 
z"/>
<path fill="#D8D8D7" opacity="1.000000" stroke="none" 
	d="
M72.054947,34.500809 
	C68.242973,32.109863 70.128517,28.588301 71.281937,25.060047 
	C71.764725,27.965887 71.895363,31.006639 72.054947,34.500809 
z"/>
<path fill="#D8D8D7" opacity="1.000000" stroke="none" 
	d="
M91.880646,48.623814 
	C88.452042,46.697788 89.770760,43.899048 91.360733,41.024326 
	C91.827606,43.355545 91.922516,45.772316 91.880646,48.623814 
z"/>
<path fill="#D8D8D7" opacity="1.000000" stroke="none" 
	d="
M91.874237,37.687359 
	C91.210632,37.864101 90.678642,37.666885 89.936691,37.016956 
	C89.558617,36.304821 89.319984,36.178879 89.010826,36.186409 
	C89.010826,36.186409 88.903839,35.751156 88.915970,35.527386 
	C89.954025,35.973541 90.979942,36.643471 91.874237,37.687359 
z"/>
<path fill="#377FAC" opacity="1.000000" stroke="none" 
	d="
M61.017487,27.951302 
	C61.017487,27.951302 61.238171,28.179995 61.556526,28.445053 
	C62.231194,28.842321 62.587509,28.974531 62.943821,29.106739 
	C62.943821,29.106739 62.968555,29.005518 63.075470,29.333241 
	C64.126205,31.443787 65.070023,33.226608 66.013847,35.009430 
	C66.013847,35.009430 66.000000,34.999847 65.687729,35.103039 
	C63.543758,37.100262 61.712063,38.994293 59.880371,40.888321 
	C59.880371,40.888325 60.012428,40.941525 59.614685,40.852924 
	C56.136223,39.182739 53.055508,37.601154 49.974789,36.019566 
	C51.907921,36.096313 53.844719,36.283085 55.773159,36.218903 
	C57.705593,36.154591 59.629692,35.839775 61.557442,35.634754 
	C60.909733,33.791279 60.786877,30.979513 59.513935,30.289528 
	C55.979603,28.373783 51.964771,27.346350 48.144440,25.955162 
	C47.134327,25.587330 46.141068,25.173233 45.069824,24.409843 
	C45.439556,23.928091 45.879528,23.816874 47.029682,23.806828 
	C48.805668,23.990339 49.871468,24.072680 51.225266,24.358467 
	C52.670925,24.760950 53.828598,24.959986 54.986267,25.159023 
	C55.240437,25.373327 55.531830,25.505743 56.309959,25.804945 
	C57.794643,26.443184 58.829807,26.832752 59.864975,27.222321 
	C59.864975,27.222321 59.937481,27.108494 59.991447,27.374283 
	C60.369442,27.743816 60.693462,27.847559 61.017487,27.951302 
z"/>
<path fill="#FAFEFC" opacity="1.000000" stroke="none" 
	d="
M35.952385,22.566395 
	C34.625294,22.970562 33.249371,23.016266 31.462177,23.058638 
	C31.579893,22.065437 32.108875,21.075571 32.637859,20.085705 
	C33.726425,20.793114 34.814987,21.500523 35.952385,22.566395 
z"/>
<path fill="#CFEDF7" opacity="1.000000" stroke="none" 
	d="
M54.896057,24.866489 
	C53.828598,24.959986 52.670925,24.760950 51.244537,24.076668 
	C50.981266,23.403332 50.986713,23.215244 50.992157,23.027153 
	C51.438416,23.021839 51.884678,23.016525 52.665676,23.010431 
	C53.602226,23.531086 54.204041,24.052523 54.896057,24.866489 
z"/>
<path fill="#C5E8F6" opacity="1.000000" stroke="none" 
	d="
M50.642826,23.007957 
	C50.986713,23.215244 50.981266,23.403332 50.956547,23.873220 
	C49.871468,24.072680 48.805668,23.990339 47.369099,23.751480 
	C48.096722,23.392895 49.195107,23.190828 50.642826,23.007957 
z"/>
<path fill="#C1E5F5" opacity="1.000000" stroke="none" 
	d="
M17.811949,82.810349 
	C17.522480,82.992409 17.270662,82.818916 17.025173,82.309456 
	C17.318769,82.090057 17.591467,82.250496 17.811949,82.810349 
z"/>
<path fill="#C1E5F5" opacity="1.000000" stroke="none" 
	d="
M15.964125,80.743935 
	C15.731650,80.803169 15.458162,80.599205 15.147318,80.133591 
	C15.381010,80.074875 15.652061,80.277809 15.964125,80.743935 
z"/>
<path fill="#C1E5F5" opacity="1.000000" stroke="none" 
	d="
M12.831226,75.779037 
	C12.592143,75.795967 12.358163,75.545166 12.123887,75.028000 
	C12.361171,75.011520 12.598750,75.261406 12.831226,75.779037 
z"/>
<path fill="#C1E5F5" opacity="1.000000" stroke="none" 
	d="
M13.848124,38.175552 
	C14.021361,38.386902 13.931004,38.759979 13.605369,39.317429 
	C13.441570,39.113632 13.513048,38.725456 13.848124,38.175552 
z"/>
<path fill="#377FAC" opacity="1.000000" stroke="none" 
	d="
M39.668098,24.184170 
	C39.686634,24.772757 39.402760,25.546717 38.900021,25.734406 
	C33.404453,27.786070 27.874683,29.746134 21.989811,31.570496 
	C26.374874,26.246492 32.699280,24.881990 39.668098,24.184170 
z"/>
<path fill="#377FAC" opacity="1.000000" stroke="none" 
	d="
M21.231447,31.587589 
	C21.191006,32.010937 20.868334,32.467022 20.214237,32.902748 
	C20.238281,32.461704 20.593748,32.041016 21.231447,31.587589 
z"/>
<path fill="#377FAC" opacity="1.000000" stroke="none" 
	d="
M22.319321,65.917015 
	C21.250561,65.103195 19.389246,64.420219 19.230097,63.456234 
	C16.066219,44.292091 30.209723,31.490694 46.384087,34.502762 
	C46.521744,34.528408 46.628380,34.720615 46.457001,35.293961 
	C42.576679,36.354679 38.988853,36.956493 35.154316,37.569775 
	C34.578091,37.654579 34.278732,37.793137 33.660336,37.992180 
	C31.547237,39.331352 29.783340,40.675255 27.798161,42.132248 
	C27.297865,42.451565 27.118803,42.723583 26.717402,43.183853 
	C20.876049,50.093246 20.418972,57.792656 22.319321,65.917015 
z"/>
<path fill="#CFEDF7" opacity="1.000000" stroke="none" 
	d="
M22.435837,66.131424 
	C20.418972,57.792656 20.876049,50.093246 26.721189,43.566036 
	C26.675461,45.538773 26.303652,47.251778 25.931843,48.964783 
	C21.793446,54.842251 23.541853,61.033150 24.678816,67.629913 
	C24.216982,68.062843 24.036934,68.072350 23.687611,67.938034 
	C23.220388,67.472313 22.922440,67.150406 22.624489,66.828499 
	C22.624491,66.828499 22.552351,66.345825 22.435837,66.131424 
z"/>
<path fill="#CFEDF7" opacity="1.000000" stroke="none" 
	d="
M35.401028,37.558311 
	C38.988853,36.956493 42.576679,36.354679 46.602806,35.641476 
	C47.769855,35.688728 48.498600,35.847370 49.601067,36.012787 
	C53.055508,37.601154 56.136223,39.182739 59.556000,40.812454 
	C59.922626,41.320084 59.950195,41.779583 59.974575,42.582920 
	C59.233479,42.929394 58.495567,42.932026 57.182365,42.661247 
	C52.855064,39.635803 49.088680,36.924736 44.005726,37.963451 
	C42.614799,37.966152 41.223869,37.968853 38.963112,37.975513 
	C37.195862,37.839088 36.298447,37.698700 35.401028,37.558311 
z"/>
<path fill="#BFD9E5" opacity="1.000000" stroke="none" 
	d="
M27.364838,74.106339 
	C27.838657,73.785492 28.178110,73.809059 28.905148,74.209702 
	C31.525051,76.133034 33.757370,77.679276 35.989689,79.225517 
	C35.832527,79.355194 35.675369,79.484863 35.270111,79.792725 
	C32.424835,78.130859 29.827650,76.290810 27.364838,74.106339 
z"/>
<path fill="#BFD9E5" opacity="1.000000" stroke="none" 
	d="
M23.856884,68.081863 
	C24.036934,68.072350 24.216982,68.062843 24.666782,68.047440 
	C24.936535,68.041542 24.967169,68.035156 25.000496,68.360107 
	C25.670700,69.470375 26.307581,70.255684 26.944462,71.040993 
	C27.040668,71.651802 27.136877,72.262604 27.248751,73.177475 
	C26.227352,72.841621 25.190290,72.201721 24.117889,70.909515 
	C24.007330,69.532104 23.932106,68.806984 23.856884,68.081863 
z"/>
<path fill="#377FAC" opacity="1.000000" stroke="none" 
	d="
M23.687611,67.938034 
	C23.932106,68.806984 24.007330,69.532104 23.990192,70.610779 
	C23.260958,69.657158 22.624084,68.349991 22.305851,66.935661 
	C22.922440,67.150406 23.220388,67.472313 23.687611,67.938034 
z"/>
<path fill="#CFEDF7" opacity="1.000000" stroke="none" 
	d="
M36.311184,79.384369 
	C33.757370,77.679276 31.525051,76.133034 29.157093,74.261177 
	C32.982780,75.733887 36.944111,77.532211 40.957443,79.682648 
	C40.554375,80.067047 40.099308,80.099319 39.247135,79.877625 
	C38.553402,79.354492 38.283897,79.389427 38.041519,79.728447 
	C37.571907,79.666710 37.102291,79.604965 36.311184,79.384369 
z"/>
<path fill="#CFEDF7" opacity="1.000000" stroke="none" 
	d="
M45.233696,80.379890 
	C47.333393,76.130608 50.653431,78.294441 53.919983,79.243835 
	C51.244122,79.952812 48.377171,80.266068 45.233696,80.379890 
z"/>
<path fill="#CFEDF7" opacity="1.000000" stroke="none" 
	d="
M59.034740,78.023361 
	C61.660282,77.335609 64.285828,76.647865 67.079803,76.316757 
	C66.663368,77.011711 66.078514,77.350021 65.109009,77.565651 
	C64.359741,77.365097 64.120575,77.516243 64.006866,77.896416 
	C63.385765,78.055122 62.764664,78.213829 61.414665,78.257797 
	C60.135422,78.103157 59.585083,78.063263 59.034740,78.023361 
z"/>
<path fill="#BFD9E5" opacity="1.000000" stroke="none" 
	d="
M75.333801,73.996231 
	C76.236000,73.192162 77.469078,72.410149 78.867310,71.894348 
	C77.909866,72.779816 76.787270,73.399055 75.333801,73.996231 
z"/>
<path fill="#BFD9E5" opacity="1.000000" stroke="none" 
	d="
M59.022263,78.018082 
	C59.585083,78.063263 60.135422,78.103157 61.093853,78.232010 
	C60.899292,78.574844 60.296646,78.828720 59.356083,78.804855 
	C59.018169,78.527122 59.019600,78.027885 59.019600,78.027885 
	C59.019600,78.027885 59.009785,78.012794 59.022263,78.018082 
z"/>
<path fill="#BFD9E5" opacity="1.000000" stroke="none" 
	d="
M38.262432,79.844116 
	C38.283897,79.389427 38.553402,79.354492 38.915695,79.778397 
	C38.981358,79.933144 38.483345,79.959778 38.262432,79.844116 
z"/>
<path fill="#CFEDF7" opacity="1.000000" stroke="none" 
	d="
M58.785431,78.110504 
	C59.019600,78.027885 59.018169,78.527122 59.023151,78.776718 
	C58.849621,79.064438 58.671108,79.102547 58.231773,79.056343 
	C58.053734,78.629944 58.247173,78.370300 58.785431,78.110504 
z"/>
<path fill="#BFD9E5" opacity="1.000000" stroke="none" 
	d="
M64.260727,77.912598 
	C64.120575,77.516243 64.359741,77.365097 64.839294,77.557877 
	C64.807671,77.758118 64.661125,77.843452 64.260727,77.912598 
z"/>
<path fill="#BFD9E5" opacity="1.000000" stroke="none" 
	d="
M70.031113,75.013321 
	C70.254395,75.041245 70.477684,75.069168 71.012939,75.228943 
	C71.064980,75.573021 70.805077,75.785248 70.281334,75.758255 
	C70.022026,75.350456 70.026566,75.181892 70.031113,75.013321 
z"/>
<path fill="#CFEDF7" opacity="1.000000" stroke="none" 
	d="
M69.786537,75.115005 
	C70.026566,75.181892 70.022026,75.350456 70.022964,75.771919 
	C69.857513,76.079971 69.686600,76.135117 69.250717,76.140076 
	C69.171158,75.798813 69.356560,75.507759 69.786537,75.115005 
z"/>
<path fill="#BFD9E5" opacity="1.000000" stroke="none" 
	d="
M83.330315,70.106583 
	C83.310165,69.845673 83.563507,69.570007 84.110130,69.337776 
	C84.136879,69.618088 83.870338,69.854958 83.330315,70.106583 
z"/>
<path fill="#BFD9E5" opacity="1.000000" stroke="none" 
	d="
M81.357330,71.117676 
	C81.337074,70.860756 81.583420,70.580727 82.123184,70.354942 
	C82.152374,70.637642 81.888145,70.866096 81.357330,71.117676 
z"/>
<path fill="#FAFEFC" opacity="1.000000" stroke="none" 
	d="
M44.004150,38.360855 
	C49.088680,36.924736 52.855064,39.635803 56.812973,42.651852 
	C56.745445,43.830826 56.397835,45.557541 56.209576,45.540340 
	C52.775791,45.226566 49.208839,45.131359 46.023201,43.997704 
	C44.873718,43.588646 44.649193,40.580402 44.004150,38.360855 
z"/>
<path fill="#FAFEFC" opacity="1.000000" stroke="none" 
	d="
M26.330177,48.971195 
	C26.303652,47.251778 26.675461,45.538773 27.043484,43.443584 
	C27.118803,42.723583 27.297865,42.451565 28.167561,42.141727 
	C29.495680,42.012054 30.233118,41.985996 30.978664,41.970909 
	C30.986774,41.981880 31.003693,42.003677 31.003693,42.003677 
	C31.034517,45.220814 31.713678,48.835392 26.330177,48.971195 
z"/>
<path fill="#FAFEFC" opacity="1.000000" stroke="none" 
	d="
M35.154316,37.569778 
	C36.298447,37.698700 37.195862,37.839088 38.545887,37.982620 
	C36.599846,39.324215 34.201195,40.662674 31.403118,42.002403 
	C31.003693,42.003677 30.986774,41.981880 31.128357,41.679554 
	C32.183140,40.250458 33.096336,39.123684 34.009537,37.996914 
	C34.278732,37.793137 34.578091,37.654579 35.154316,37.569778 
z"/>
<path fill="#CFEDF7" opacity="1.000000" stroke="none" 
	d="
M26.953777,70.684578 
	C26.307581,70.255684 25.670700,69.470375 25.001213,68.371017 
	C25.633432,68.814034 26.298262,69.571098 26.953777,70.684578 
z"/>
<path fill="#FAFEFC" opacity="1.000000" stroke="none" 
	d="
M89.113388,36.352077 
	C89.319984,36.178879 89.558617,36.304821 89.784241,36.765610 
	C89.590828,36.876194 89.382225,36.726452 89.113388,36.352077 
z"/>
<path fill="#CFEDF7" opacity="1.000000" stroke="none" 
	d="
M66.336739,34.984272 
	C65.070023,33.226608 64.126205,31.443787 63.043842,29.374645 
	C68.163719,29.943111 69.195404,31.556408 66.336739,34.984272 
z"/>
<path fill="#CFEDF7" opacity="1.000000" stroke="none" 
	d="
M60.257366,40.927700 
	C61.712063,38.994293 63.543758,37.100262 65.692535,35.109764 
	C65.955360,38.566551 63.989826,40.394245 60.257366,40.927700 
z"/>
<path fill="#CFEDF7" opacity="1.000000" stroke="none" 
	d="
M59.762337,26.855568 
	C58.829807,26.832752 57.794643,26.443184 56.552094,25.790649 
	C57.449707,25.848061 58.554707,26.168436 59.762337,26.855568 
z"/>
<path fill="#CFEDF7" opacity="1.000000" stroke="none" 
	d="
M62.813911,28.830452 
	C62.587509,28.974531 62.231194,28.842321 61.714272,28.464180 
	C61.930443,28.330221 62.307220,28.442192 62.813911,28.830452 
z"/>
<path fill="#CFEDF7" opacity="1.000000" stroke="none" 
	d="
M60.896400,27.718992 
	C60.693462,27.847559 60.369442,27.743816 59.930740,27.403744 
	C60.135811,27.273836 60.455563,27.380259 60.896400,27.718992 
z"/>
<path fill="#CFEDF7" opacity="1.000000" stroke="none" 
	d="
M33.660336,37.992180 
	C33.096336,39.123684 32.183140,40.250458 31.120247,41.668579 
	C30.233118,41.985996 29.495680,42.012054 28.388844,42.028637 
	C29.783340,40.675255 31.547237,39.331352 33.660336,37.992180 
z"/>
</svg>