<svg version="1.1" id="Layer_1" xmlns="http://www.w3.org/2000/svg" xmlns:xlink="http://www.w3.org/1999/xlink" x="0px" y="0px"
	 width="100%" viewBox="0 0 423 280" enable-background="new 0 0 423 280" xml:space="preserve">
<path fill="#FEFEFE" opacity="1.000000" stroke="none" 
	d="
M264.000000,281.000000 
	C176.000015,281.000000 88.500031,281.000000 1.000035,281.000000 
	C1.000023,187.666702 1.000023,94.333397 1.000012,1.000073 
	C141.999939,1.000049 282.999878,1.000049 423.999878,1.000024 
	C423.999908,94.333260 423.999908,187.666519 423.999939,280.999878 
	C370.833344,281.000000 317.666656,281.000000 264.000000,281.000000 
M298.235901,148.946808 
	C297.477325,149.595642 296.718781,150.244476 295.815796,151.441010 
	C295.492615,151.608368 295.169403,151.775726 294.194733,151.904297 
	C293.451874,152.498459 292.709015,153.092621 291.632141,154.177689 
	C290.953369,154.555573 290.274628,154.933456 288.896027,154.974854 
	C287.578094,154.623398 286.260132,154.271942 284.226746,153.729691 
	C285.213379,155.580338 285.746582,156.580490 285.864471,158.102600 
	C283.305115,159.546509 280.721619,160.949478 278.190643,162.441574 
	C268.187897,168.338608 258.484650,174.819351 248.158279,180.078186 
	C211.146286,198.926971 172.021057,209.063248 130.203156,206.941269 
	C93.551193,205.081390 65.104103,174.646942 65.571693,138.013474 
	C66.052658,100.332520 94.290062,71.231461 131.516922,69.964729 
	C143.494873,69.557159 154.544235,72.354958 164.937119,78.389259 
	C178.579620,86.310349 187.433441,84.955490 198.490479,73.781227 
	C199.544617,72.715927 200.593292,71.641220 201.582581,70.516418 
	C208.796371,62.314480 208.365768,57.619118 199.336197,51.344242 
	C166.993683,28.868685 131.802322,24.151199 94.655502,36.183140 
	C65.925430,45.488880 44.872997,64.222572 33.288818,92.367531 
	C21.515369,120.972343 20.182205,150.309296 30.145668,179.783890 
	C40.482986,210.364471 61.009968,231.063721 91.680069,241.303879 
	C116.708748,249.660461 142.145309,249.576675 167.580460,243.412552 
	C200.577087,235.415894 230.725327,220.887756 259.136810,202.543839 
	C262.445648,200.407486 265.735138,198.241135 269.693146,196.062943 
	C270.342926,195.494354 270.992737,194.925766 272.246399,194.182770 
	C274.005463,193.046036 275.764526,191.909302 278.239685,190.892365 
	C278.828735,190.274582 279.417786,189.656784 280.350281,188.511719 
	C281.216583,187.950256 282.082855,187.388809 283.230743,187.373871 
	C283.960480,187.692581 284.690186,188.011292 286.174530,188.659592 
	C285.402863,187.058105 285.018127,186.259644 284.987732,184.999588 
	C286.103363,184.208572 287.219025,183.417557 289.100647,182.810715 
	C289.742126,181.887680 290.383575,180.964661 291.004272,179.996384 
	C291.004272,179.996384 291.044220,180.026550 291.741577,180.111435 
	C292.842987,179.173828 293.944397,178.236221 295.461700,176.733887 
	C300.951477,172.090378 306.441254,167.446884 312.267731,163.336487 
	C312.833221,162.530899 313.398712,161.725311 314.189606,160.389526 
	C314.791260,159.925568 315.392944,159.461609 316.725677,159.032837 
	C317.498688,158.058151 318.271698,157.083466 319.322540,155.533813 
	C320.721008,154.278976 322.119446,153.024124 324.349457,151.898376 
	C328.867218,152.347580 328.929474,149.200211 329.259216,145.501160 
	C330.204803,144.403030 331.150421,143.304886 332.716705,141.991470 
	C333.820831,140.664719 334.924927,139.337952 336.649445,137.768021 
	C339.110687,135.219223 341.571960,132.670410 344.444000,130.575211 
	C344.940369,129.672531 345.436737,128.769852 346.116119,127.273979 
	C347.247711,126.098625 348.379303,124.923279 350.305237,123.888977 
	C354.396698,123.130737 354.614227,119.634674 355.560272,116.555611 
	C355.560272,116.555611 355.577972,116.457809 356.334656,116.663330 
	C356.830902,115.664154 357.327148,114.664978 357.876831,113.308609 
	C357.876831,113.308609 357.988892,112.965256 358.543213,112.936798 
	C358.689423,112.621918 358.835663,112.307030 359.001282,111.999336 
	C359.001282,111.999336 358.989563,111.981194 359.644318,111.764198 
	C361.396912,109.164536 363.149506,106.564873 365.523926,103.670723 
	C367.593781,101.070290 369.663605,98.469856 372.487976,95.865974 
	C372.967316,94.861572 373.446625,93.857162 374.120422,92.208282 
	C376.950928,88.408798 379.781433,84.609322 383.243988,80.891426 
	C383.490936,80.259407 383.737885,79.627396 384.134247,78.328117 
	C384.689941,77.347977 385.245605,76.367844 386.278229,75.062012 
	C387.104187,74.001228 387.930115,72.940453 389.543457,71.877029 
	C393.290131,71.288902 393.229767,68.611710 393.000824,65.210609 
	C393.111816,64.846436 393.222809,64.482262 393.870422,63.848381 
	C394.597504,62.906445 395.324554,61.964508 396.817261,61.018780 
	C399.576599,58.527409 402.574524,56.168156 402.080994,51.218628 
	C402.608612,50.171604 403.136230,49.124580 404.215820,47.867321 
	C403.905182,47.212360 403.594513,46.557396 402.617188,45.402046 
	C402.094788,45.219925 401.572418,45.037807 400.739594,44.468361 
	C400.167450,44.995827 399.595306,45.523296 398.688629,46.616268 
	C396.824219,48.755436 394.959808,50.894608 392.662018,53.095024 
	C392.662018,53.095024 392.224487,53.104530 391.676758,52.759743 
	C391.443207,51.157082 391.209656,49.554424 390.974701,47.109219 
	C390.886871,46.556534 390.799042,46.003853 390.846741,44.779125 
	C391.685455,42.870735 392.524200,40.962341 393.900726,39.006916 
	C393.970856,38.345993 394.040985,37.685070 394.094757,36.337059 
	C394.263367,35.916668 394.431976,35.496277 395.215210,34.860893 
	C394.845978,33.558876 394.476746,32.256863 393.520599,30.832850 
	C393.372711,30.698486 393.224823,30.564121 392.918854,29.816874 
	C391.627991,29.808020 390.337158,29.799164 388.118805,29.971359 
	C362.032684,29.925516 335.946472,29.905828 309.860474,29.825340 
	C289.928131,29.763836 269.996033,29.625383 249.774200,28.811235 
	C243.242569,28.608883 236.711365,28.381075 230.178192,28.265615 
	C229.774078,28.258474 229.354324,29.135784 228.240005,29.813745 
	C227.271500,29.931545 226.303009,30.049345 224.646286,30.046238 
	C224.079269,30.651947 223.512253,31.257658 222.636414,32.501038 
	C221.086655,37.001785 219.536896,41.502537 217.435074,46.499634 
	C217.649948,48.339214 217.864807,50.178791 218.371796,52.625271 
	C218.660095,53.928642 218.948395,55.232010 219.090439,57.287125 
	C220.390366,58.859531 221.690308,60.431934 223.628555,62.247990 
	C229.122437,67.438522 235.981415,68.115685 243.069382,68.313705 
	C251.845642,68.558891 260.636322,68.783440 269.381165,69.499786 
	C276.449310,70.078781 280.500031,74.588814 281.387512,81.439697 
	C282.216766,87.840965 282.569916,94.321747 282.798157,100.779343 
	C283.283997,114.523781 283.552795,128.275894 283.441010,142.374054 
	C283.395416,143.646790 282.825623,145.307724 283.418182,146.107834 
	C284.502594,147.572083 286.273865,148.527634 287.758698,149.695328 
	C288.430450,148.613907 289.102234,147.532471 290.162079,145.925598 
	C290.942291,145.852997 291.722504,145.780396 292.775513,146.056702 
	C292.963837,146.054337 293.152161,146.051971 293.340485,146.049606 
	C293.124725,145.870407 292.908997,145.691208 292.186218,144.899841 
	C294.378998,143.249405 296.571808,141.598969 299.416718,139.993622 
	C299.955322,139.427307 300.493927,138.861008 301.483215,137.755280 
	C304.650879,135.501587 307.818542,133.247894 311.691559,131.045990 
	C313.121796,130.706085 314.552063,130.366180 316.379913,129.524246 
	C318.002716,130.049683 319.625549,130.575134 321.224243,131.576935 
	C321.224243,131.576935 321.148224,132.047791 320.498840,132.197784 
	C319.538086,133.108200 318.577362,134.018600 317.042908,135.092438 
	C316.023132,136.047638 315.003387,137.002853 313.337738,138.080704 
	C311.918579,139.065536 310.499420,140.050369 308.342651,140.972763 
	C306.550385,142.627823 304.758148,144.282883 303.008179,145.978516 
	C303.008179,145.978516 302.949890,145.972763 302.185944,145.966629 
	C301.107513,146.948151 300.029114,147.929672 299.001160,148.966080 
	C299.001160,148.966080 298.926758,148.961853 298.235901,148.946808 
M324.741974,168.457535 
	C323.136597,168.400055 321.531219,168.342575 319.268982,168.684723 
	C318.508789,168.775269 317.748566,168.865814 316.686127,168.498825 
	C316.114319,168.933624 315.542511,169.368439 314.523346,170.199966 
	C313.808807,170.526901 313.094299,170.853836 311.678741,171.072968 
	C311.107269,171.685471 310.535797,172.297974 309.641907,173.480896 
	C307.824860,175.017044 306.007782,176.553192 303.477081,178.096710 
	C303.002319,178.799728 302.527527,179.502747 301.814880,180.757416 
	C300.896515,181.514008 299.978149,182.270615 298.346008,182.979095 
	C297.547333,183.882599 296.748688,184.786102 295.502197,186.241943 
	C294.079559,187.083801 292.656891,187.925644 290.947144,188.057999 
	C288.128967,187.413162 288.128967,187.413162 286.872742,192.903534 
	C285.542999,196.421371 283.206848,199.900177 283.068573,203.464249 
	C282.618500,215.064468 282.817932,226.699402 283.086548,238.313599 
	C283.205505,243.458344 287.462982,247.498398 292.576935,247.837418 
	C296.044647,248.067307 299.540009,247.880539 303.742096,248.224731 
	C307.813354,248.085190 311.884583,247.945648 316.685425,247.850769 
	C321.780487,247.087204 324.047516,243.530533 326.105103,238.805603 
	C325.930756,234.847931 325.756378,230.890259 325.358826,226.029083 
	C325.275635,215.009781 325.192474,203.990494 325.696716,192.384064 
	C325.786957,186.659012 325.954559,180.933228 325.899628,175.209579 
	C325.889099,174.114548 325.001923,173.027908 324.308472,171.202759 
	C324.319305,170.439697 324.330139,169.676636 324.741974,168.457535 
z"/>
<path fill="#040404" opacity="1.000000" stroke="none" 
	d="
M289.595886,155.311340 
	C290.274628,154.933456 290.953369,154.555573 292.124451,153.979584 
	C293.359955,153.168686 294.103088,152.555878 294.846222,151.943069 
	C295.169403,151.775726 295.492615,151.608368 296.213165,151.125885 
	C297.382599,150.194458 298.154694,149.578156 298.926758,148.961853 
	C298.926758,148.961853 299.001160,148.966080 299.277191,148.804306 
	C300.685455,147.752609 301.817657,146.862686 302.949890,145.972763 
	C302.949890,145.972763 303.008179,145.978516 303.299530,145.862579 
	C304.973511,144.794632 306.356110,143.842621 308.131653,142.928589 
	C311.541870,142.602402 314.207306,141.854736 313.983612,137.958054 
	C315.003387,137.002853 316.023132,136.047638 317.703247,135.041595 
	C319.291809,134.009766 320.220001,133.028778 321.148224,132.047791 
	C321.148224,132.047791 321.224243,131.576935 321.517761,131.302826 
	C322.183807,130.615982 322.556305,130.203262 323.236542,129.738800 
	C324.393066,128.804214 325.241913,127.921379 326.404175,126.924301 
	C329.136932,124.522560 331.556305,122.235046 334.289734,119.869949 
	C335.757568,118.537331 336.911285,117.282318 338.379761,115.916901 
	C341.161133,113.548874 343.627747,111.291237 346.473450,109.027359 
	C347.394165,108.189301 347.935852,107.357475 348.574768,106.604355 
	C348.671967,106.683060 348.531982,106.475723 348.893127,106.597435 
	C349.835785,105.811790 350.417328,104.904427 351.060486,103.748611 
	C351.401917,103.328468 351.681732,103.156784 352.342987,102.992279 
	C353.466553,101.959290 354.208710,100.919121 355.058289,99.564240 
	C360.058990,93.812531 364.952209,88.375519 370.195404,82.925682 
	C371.047150,81.990463 371.548920,81.068069 372.144409,79.864113 
	C372.788635,79.040672 373.339233,78.498795 374.249695,77.926407 
	C375.026398,77.145775 375.443237,76.395660 375.942017,75.324692 
	C381.424133,67.704063 386.824310,60.404293 392.224487,53.104527 
	C392.224487,53.104530 392.662018,53.095024 393.240631,53.072510 
	C395.304749,54.060902 396.790253,55.071808 398.234131,56.379349 
	C397.834900,57.131542 397.477264,57.587105 396.763824,57.998497 
	C394.924072,58.347805 393.440125,58.741283 391.956146,59.134754 
	C392.415344,60.795864 392.874573,62.456978 393.333771,64.118088 
	C393.222809,64.482262 393.111816,64.846436 392.635498,65.639481 
	C391.098785,68.005455 389.927429,69.942558 388.756042,71.879669 
	C387.930115,72.940453 387.104187,74.001228 385.604340,75.126335 
	C383.687897,75.582718 382.445312,75.974777 381.202759,76.366837 
	C381.825806,77.252228 382.448853,78.137611 383.003479,79.327209 
	C382.827362,80.024223 382.719666,80.417038 382.611938,80.809845 
	C379.781433,84.609322 376.950928,88.408798 373.730042,92.669296 
	C372.804260,94.043350 372.268860,94.956390 371.733459,95.869423 
	C369.663605,98.469856 367.593781,101.070290 364.836426,103.821480 
	C359.196655,104.559509 359.179260,108.325844 358.989563,111.981194 
	C358.989563,111.981194 359.001282,111.999336 358.769897,112.092361 
	C358.268829,112.384407 358.085632,112.644363 357.988892,112.965256 
	C357.988892,112.965256 357.876831,113.308609 357.568420,113.614548 
	C356.699341,114.766273 356.138672,115.612045 355.578003,116.457817 
	C355.577972,116.457809 355.560272,116.555611 355.218994,116.709335 
	C353.088776,119.158012 351.299835,121.452965 349.510864,123.747925 
	C348.379303,124.923279 347.247711,126.098625 345.725708,127.666367 
	C344.901276,128.746368 344.467255,129.433990 344.033234,130.121613 
	C341.571960,132.670410 339.110687,135.219223 335.935455,137.877869 
	C332.003571,137.782043 329.895996,138.398865 332.096039,142.206757 
	C331.150421,143.304886 330.204803,144.403030 328.830414,145.889801 
	C326.773712,148.108719 325.145813,149.939011 323.517914,151.769287 
	C322.119446,153.024124 320.721008,154.278976 318.875916,155.883469 
	C317.617706,157.154633 316.806152,158.076141 315.994629,158.997650 
	C315.392944,159.461609 314.791260,159.925568 313.778809,160.692795 
	C312.888977,161.598495 312.410004,162.200943 311.931000,162.803375 
	C306.441254,167.446884 300.951477,172.090378 294.926697,177.018738 
	C293.275879,178.211243 292.160034,179.118896 291.044220,180.026550 
	C291.044220,180.026550 291.004272,179.996384 290.693359,180.070007 
	C289.699860,180.971283 289.017242,181.798904 288.334656,182.626526 
	C287.219025,183.417557 286.103363,184.208572 284.524841,185.287140 
	C283.691040,185.992249 283.320099,186.409805 282.949158,186.827362 
	C282.082855,187.388809 281.216583,187.950256 279.858063,188.801453 
	C278.751770,189.651642 278.137665,190.212112 277.523590,190.772568 
	C275.764526,191.909302 274.005463,193.046036 271.589478,194.169312 
	C269.936066,194.155838 268.939606,194.155838 267.650360,194.155838 
	C268.314392,195.083710 268.674011,195.586197 269.033600,196.088684 
	C265.735138,198.241135 262.445648,200.407486 259.136810,202.543839 
	C230.725327,220.887756 200.577087,235.415894 167.580460,243.412552 
	C142.145309,249.576675 116.708748,249.660461 91.680069,241.303879 
	C61.009968,231.063721 40.482986,210.364471 30.145668,179.783890 
	C20.182205,150.309296 21.515369,120.972343 33.288818,92.367531 
	C44.872997,64.222572 65.925430,45.488880 94.655502,36.183140 
	C131.802322,24.151199 166.993683,28.868685 199.336197,51.344242 
	C208.365768,57.619118 208.796371,62.314480 201.582581,70.516418 
	C200.593292,71.641220 199.544617,72.715927 198.490479,73.781227 
	C187.433441,84.955490 178.579620,86.310349 164.937119,78.389259 
	C154.544235,72.354958 143.494873,69.557159 131.516922,69.964729 
	C94.290062,71.231461 66.052658,100.332520 65.571693,138.013474 
	C65.104103,174.646942 93.551193,205.081390 130.203156,206.941269 
	C172.021057,209.063248 211.146286,198.926971 248.158279,180.078186 
	C258.484650,174.819351 268.187897,168.338608 278.190643,162.441574 
	C280.721619,160.949478 283.305115,159.546509 286.415863,157.793640 
	C287.843475,156.760239 288.719666,156.035797 289.595886,155.311340 
M363.585754,98.515350 
	C363.585754,98.515350 363.476990,98.580048 363.585754,98.515350 
M376.414062,79.481018 
	C376.414062,79.481018 376.524536,79.414993 376.414062,79.481018 
z"/>
<path fill="#030303" opacity="1.000000" stroke="none" 
	d="
M393.076965,30.429760 
	C393.224823,30.564121 393.372711,30.698486 393.949219,31.295803 
	C394.452118,32.864464 394.526337,33.970169 394.600586,35.075882 
	C394.431976,35.496277 394.263367,35.916668 393.876251,36.866913 
	C393.559479,37.949158 393.461182,38.501549 393.362915,39.053940 
	C392.524200,40.962341 391.685455,42.870735 390.510376,45.279236 
	C389.872253,46.534363 389.570465,47.289379 389.100586,48.189026 
	C388.932465,48.333652 388.890930,48.775257 388.564758,48.859756 
	C387.528351,49.981895 386.818115,51.019535 386.066467,52.046242 
	C386.025085,52.035313 386.059814,52.113590 385.702209,52.114250 
	C384.242645,53.748749 383.140717,55.382595 381.730408,57.152668 
	C378.480133,59.346489 375.538269,61.404083 372.266144,63.311676 
	C371.265076,63.664684 370.594269,64.167694 369.599884,64.844604 
	C367.174896,65.633621 365.073456,66.248734 362.803589,66.626144 
	C361.724518,66.768326 360.813934,67.148209 359.504944,67.643463 
	C357.730591,67.805054 356.354645,67.851295 354.680359,67.610847 
	C348.214264,67.653809 342.046570,67.983452 335.490662,68.457237 
	C333.728119,68.700905 332.353760,68.800438 330.801727,68.659256 
	C329.394379,69.197868 328.164764,69.977196 326.780273,71.027565 
	C326.368439,71.850281 326.111420,72.401955 325.567200,73.166275 
	C325.223511,75.906898 325.166962,78.434868 325.026672,81.405167 
	C325.178650,84.215813 325.414429,86.584129 325.555542,89.288330 
	C325.682678,90.735420 325.904480,91.846634 326.052307,93.419258 
	C326.032562,97.933937 326.086792,101.987206 325.958588,106.302040 
	C325.712341,107.391785 325.648529,108.219948 325.396027,109.371628 
	C324.662628,111.539642 324.117950,113.384140 323.316101,115.468933 
	C322.273438,117.393112 321.487976,119.077019 320.803406,120.817825 
	C320.904327,120.874733 320.738525,120.712860 320.449097,120.818680 
	C319.744904,121.604805 319.330139,122.285126 318.627869,123.122047 
	C316.959015,124.902939 315.577667,126.527222 313.899078,128.253464 
	C312.729950,129.235031 311.858093,130.114624 310.986206,130.994202 
	C307.818542,133.247894 304.650879,135.501587 300.954407,138.019867 
	C299.871948,138.839142 299.318298,139.393845 298.764618,139.948547 
	C296.571808,141.598969 294.378998,143.249405 292.414764,145.276932 
	C292.643311,145.654022 292.502716,145.707794 292.502716,145.707794 
	C291.722504,145.780396 290.942291,145.852997 289.563293,146.346191 
	C287.846313,146.549332 286.315704,146.703918 285.705780,146.027908 
	C284.773590,144.994690 284.476959,143.388062 283.910522,142.024857 
	C283.552795,128.275894 283.283997,114.523781 282.798157,100.779343 
	C282.569916,94.321747 282.216766,87.840965 281.387512,81.439697 
	C280.500031,74.588814 276.449310,70.078781 269.381165,69.499786 
	C260.636322,68.783440 251.845642,68.558891 243.069382,68.313705 
	C235.981415,68.115685 229.122437,67.438522 223.222534,61.800980 
	C221.623215,59.747772 220.429947,58.141579 219.236694,56.535381 
	C218.948395,55.232010 218.660095,53.928642 218.332611,52.071465 
	C218.191330,49.679539 218.089233,47.841412 217.987152,46.003288 
	C219.536896,41.502537 221.086655,37.001785 223.095123,32.137714 
	C224.147400,31.238644 224.740952,30.702898 225.334503,30.167149 
	C226.303009,30.049345 227.271500,29.931545 229.055206,29.799129 
	C236.601532,29.696728 243.332687,29.608942 250.063828,29.521158 
	C269.996033,29.625383 289.928131,29.763836 309.860474,29.825340 
	C335.946472,29.905828 362.032684,29.925516 388.878784,30.055119 
	C390.784851,30.235838 391.930908,30.332798 393.076965,30.429760 
z"/>
<path fill="#040404" opacity="1.000000" stroke="none" 
	d="
M316.988373,168.956329 
	C317.748566,168.865814 318.508789,168.775269 319.908997,168.584320 
	C321.813019,168.627136 323.076996,168.770355 324.341003,168.913574 
	C324.330139,169.676636 324.319305,170.439697 324.289490,172.027679 
	C324.550079,179.558792 324.829681,186.264984 325.109314,192.971191 
	C325.192474,203.990494 325.275635,215.009781 325.330902,226.928040 
	C325.328094,231.567749 325.353241,235.308472 325.378387,239.049210 
	C324.047516,243.530533 321.780487,247.087204 316.015900,247.562775 
	C311.238586,247.476562 307.130798,247.678345 303.023010,247.880112 
	C299.540009,247.880539 296.044647,248.067307 292.576935,247.837418 
	C287.462982,247.498398 283.205505,243.458344 283.086548,238.313599 
	C282.817932,226.699402 282.618500,215.064468 283.068573,203.464249 
	C283.206848,199.900177 285.542999,196.421371 287.297760,192.499939 
	C288.893250,190.986725 290.063721,189.877090 291.234222,188.767487 
	C292.656891,187.925644 294.079559,187.083801 296.031494,185.935791 
	C297.393799,184.762161 298.226807,183.894699 299.059784,183.027222 
	C299.978149,182.270615 300.896515,181.514008 302.242920,180.398895 
	C303.177521,179.390015 303.684113,178.739670 304.190704,178.089340 
	C306.007782,176.553192 307.824860,175.017044 310.115051,173.161163 
	C311.185425,172.287872 311.782623,171.734329 312.379791,171.180786 
	C313.094299,170.853836 313.808807,170.526901 315.040405,170.059052 
	C316.034424,169.597534 316.511383,169.276932 316.988373,168.956329 
z"/>
<path fill="#FBFBFB" opacity="1.000000" stroke="none" 
	d="
M326.141022,106.040466 
	C326.086792,101.987206 326.032562,97.933937 326.297180,93.225174 
	C326.294098,91.363930 325.972168,90.158195 325.650208,88.952454 
	C325.414429,86.584129 325.178650,84.215813 325.297119,81.151115 
	C325.719025,77.954369 325.786713,75.454002 325.854401,72.953629 
	C326.111420,72.401955 326.368439,71.850281 327.103210,70.996658 
	C328.713776,70.096458 329.846619,69.498215 330.979431,68.899971 
	C332.353760,68.800438 333.728119,68.700905 335.952118,68.576248 
	C342.860748,68.333260 348.919739,68.115395 354.978699,67.897530 
	C356.354645,67.851295 357.730591,67.805054 359.821625,67.754196 
	C361.348480,67.454338 362.160278,67.159096 362.972046,66.863853 
	C365.073456,66.248734 367.174896,65.633621 369.905121,64.893585 
	C371.221436,64.333015 371.908905,63.897358 372.596405,63.461689 
	C375.538269,61.404083 378.480133,59.346489 382.082947,57.144890 
	C383.849182,55.371788 384.954498,53.742687 386.059814,52.113586 
	C386.059814,52.113590 386.025085,52.035313 386.409058,52.064522 
	C389.585449,52.310783 389.509369,50.714462 388.890930,48.775257 
	C388.890930,48.775257 388.932465,48.333652 389.386169,48.207798 
	C390.218628,48.038551 390.597382,47.995159 390.976105,47.951767 
	C391.209656,49.554424 391.443207,51.157082 391.950623,52.932133 
	C386.824310,60.404293 381.424133,67.704063 375.638855,75.432190 
	C374.799103,76.559341 374.344482,77.258141 373.889832,77.956924 
	C373.339233,78.498795 372.788635,79.040672 371.846191,79.956650 
	C370.917999,81.200005 370.381744,82.069260 369.845459,82.938515 
	C364.952209,88.375519 360.058990,93.812531 354.749115,99.651398 
	C353.542175,101.030548 352.751892,102.007820 351.961578,102.985100 
	C351.681732,103.156784 351.401917,103.328468 350.765991,103.826920 
	C349.783966,104.927696 349.157959,105.701706 348.531982,106.475723 
	C348.531982,106.475723 348.671967,106.683060 348.293030,106.705811 
	C347.307526,107.496910 346.700958,108.265259 346.094391,109.033600 
	C343.627747,111.291237 341.161133,113.548874 338.018250,115.897072 
	C335.311157,116.535103 332.170227,116.138863 333.975647,119.947540 
	C331.556305,122.235046 329.136932,124.522560 326.038635,126.902130 
	C324.549408,127.926308 323.739105,128.858429 322.928833,129.790543 
	C322.556305,130.203262 322.183807,130.615982 321.529846,131.064636 
	C319.625549,130.575134 318.002716,130.049683 315.837769,129.510147 
	C314.929169,129.047867 314.562775,128.599686 314.196350,128.151505 
	C315.577667,126.527222 316.959015,124.902939 318.982056,123.096054 
	C319.995331,122.179924 320.366943,121.446388 320.738525,120.712860 
	C320.738525,120.712860 320.904327,120.874733 321.201080,120.840530 
	C322.189667,118.947105 322.881500,117.087875 323.573303,115.228653 
	C324.117950,113.384140 324.662628,111.539642 325.673828,109.293533 
	C326.140533,107.941437 326.140778,106.990952 326.141022,106.040466 
z"/>
<path fill="#101010" opacity="1.000000" stroke="none" 
	d="
M398.275757,56.082722 
	C396.790253,55.071808 395.304749,54.060902 393.457306,53.041885 
	C394.959808,50.894608 396.824219,48.755436 399.251282,46.247684 
	C400.225952,45.537964 400.637970,45.196831 401.050018,44.855690 
	C401.572418,45.037807 402.094788,45.219925 402.924744,45.933418 
	C403.376160,47.002384 403.519989,47.539978 403.663818,48.077564 
	C403.136230,49.124580 402.608612,50.171604 401.721008,51.659134 
	C400.332611,53.427334 399.304169,54.755028 398.275757,56.082722 
z"/>
<path fill="#DDDDDD" opacity="1.000000" stroke="none" 
	d="
M249.919006,29.166195 
	C243.332687,29.608942 236.601532,29.696728 229.406128,29.693052 
	C229.354324,29.135784 229.774078,28.258474 230.178192,28.265615 
	C236.711365,28.381075 243.242569,28.608883 249.919006,29.166195 
z"/>
<path fill="#E1E1E1" opacity="1.000000" stroke="none" 
	d="
M325.403015,192.677628 
	C324.829681,186.264984 324.550079,179.558792 324.394836,172.394989 
	C325.001923,173.027908 325.889099,174.114548 325.899628,175.209579 
	C325.954559,180.933228 325.786957,186.659012 325.403015,192.677628 
z"/>
<path fill="#383838" opacity="1.000000" stroke="none" 
	d="
M303.382568,248.052429 
	C307.130798,247.678345 311.238586,247.476562 315.651123,247.540451 
	C311.884583,247.945648 307.813354,248.085190 303.382568,248.052429 
z"/>
<path fill="#101010" opacity="1.000000" stroke="none" 
	d="
M393.602112,63.983234 
	C392.874573,62.456978 392.415344,60.795864 391.956146,59.134754 
	C393.440125,58.741283 394.924072,58.347805 396.725708,58.319443 
	C396.712799,59.463898 396.382202,60.243237 396.051605,61.022575 
	C395.324554,61.964508 394.597504,62.906445 393.602112,63.983234 
z"/>
<path fill="#E1E1E1" opacity="1.000000" stroke="none" 
	d="
M325.741760,238.927399 
	C325.353241,235.308472 325.328094,231.567749 325.442505,227.379791 
	C325.756378,230.890259 325.930756,234.847931 325.741760,238.927399 
z"/>
<path fill="#E8E8E8" opacity="1.000000" stroke="none" 
	d="
M283.675781,142.199463 
	C284.476959,143.388062 284.773590,144.994690 285.705780,146.027908 
	C286.315704,146.703918 287.846313,146.549332 289.369263,146.608917 
	C289.102234,147.532471 288.430450,148.613907 287.758698,149.695328 
	C286.273865,148.527634 284.502594,147.572083 283.418182,146.107834 
	C282.825623,145.307724 283.395416,143.646790 283.675781,142.199463 
z"/>
<path fill="#101010" opacity="1.000000" stroke="none" 
	d="
M359.316956,111.872696 
	C359.179260,108.325844 359.196655,104.559509 364.525513,103.968719 
	C363.149506,106.564873 361.396912,109.164536 359.316956,111.872696 
z"/>
<path fill="#DDDDDD" opacity="1.000000" stroke="none" 
	d="
M396.434448,61.020679 
	C396.382202,60.243237 396.712799,59.463898 397.081482,58.363609 
	C397.477264,57.587105 397.834900,57.131542 398.234131,56.379353 
	C399.304169,54.755028 400.332611,53.427334 401.644073,51.945030 
	C402.574524,56.168156 399.576599,58.527409 396.434448,61.020679 
z"/>
<path fill="#DCDCDC" opacity="1.000000" stroke="none" 
	d="
M349.908051,123.818443 
	C351.299835,121.452965 353.088776,119.158012 355.171814,116.724930 
	C354.614227,119.634674 354.396698,123.130737 349.908051,123.818443 
z"/>
<path fill="#E1E1E1" opacity="1.000000" stroke="none" 
	d="
M323.933685,151.833832 
	C325.145813,149.939011 326.773712,148.108719 328.719788,146.184296 
	C328.929474,149.200211 328.867218,152.347580 323.933685,151.833832 
z"/>
<path fill="#DDDDDD" opacity="1.000000" stroke="none" 
	d="
M389.149750,71.878342 
	C389.927429,69.942558 391.098785,68.005455 392.579468,65.924454 
	C393.229767,68.611710 393.290131,71.288902 389.149750,71.878342 
z"/>
<path fill="#101010" opacity="1.000000" stroke="none" 
	d="
M332.406372,142.099121 
	C329.895996,138.398865 332.003571,137.782043 335.625244,137.999466 
	C334.924927,139.337952 333.820831,140.664719 332.406372,142.099121 
z"/>
<path fill="#E8E8E8" opacity="1.000000" stroke="none" 
	d="
M307.738708,142.890610 
	C306.356110,143.842621 304.973511,144.794632 303.278381,145.842285 
	C304.758148,144.282883 306.550385,142.627823 308.632751,141.287750 
	C308.528137,142.032013 308.133423,142.461304 307.738708,142.890610 
z"/>
<path fill="#101010" opacity="1.000000" stroke="none" 
	d="
M383.071899,79.023003 
	C382.448853,78.137611 381.825806,77.252228 381.202759,76.366837 
	C382.445312,75.974777 383.687897,75.582718 385.365875,75.289185 
	C385.245605,76.367844 384.689941,77.347977 383.831360,78.671417 
	C383.528503,79.014725 383.071899,79.023003 383.071899,79.023003 
z"/>
<path fill="#E1E1E1" opacity="1.000000" stroke="none" 
	d="
M291.090698,188.412735 
	C290.063721,189.877090 288.893250,190.986725 287.422363,192.178024 
	C288.128967,187.413162 288.128967,187.413162 291.090698,188.412735 
z"/>
<path fill="#101010" opacity="1.000000" stroke="none" 
	d="
M308.131653,142.928589 
	C308.133423,142.461304 308.528137,142.032013 309.001526,141.318970 
	C310.499420,140.050369 311.918579,139.065536 313.660675,138.019379 
	C314.207306,141.854736 311.541870,142.602402 308.131653,142.928589 
z"/>
<path fill="#E8E8E8" opacity="1.000000" stroke="none" 
	d="
M289.245972,155.143097 
	C288.719666,156.035797 287.843475,156.760239 286.623535,157.532669 
	C285.746582,156.580490 285.213379,155.580338 284.226746,153.729691 
	C286.260132,154.271942 287.578094,154.623398 289.245972,155.143097 
z"/>
<path fill="#DDDDDD" opacity="1.000000" stroke="none" 
	d="
M217.711121,46.251461 
	C218.089233,47.841412 218.191330,49.679539 218.186554,51.768017 
	C217.864807,50.178791 217.649948,48.339214 217.711121,46.251461 
z"/>
<path fill="#DDDDDD" opacity="1.000000" stroke="none" 
	d="
M219.163559,56.911255 
	C220.429947,58.141579 221.623215,59.747772 222.903381,61.679153 
	C221.690308,60.431934 220.390366,58.859531 219.163559,56.911255 
z"/>
<path fill="#E1E1E1" opacity="1.000000" stroke="none" 
	d="
M324.541473,168.685547 
	C323.076996,168.770355 321.813019,168.627136 320.237427,168.384506 
	C321.531219,168.342575 323.136597,168.400055 324.541473,168.685547 
z"/>
<path fill="#E8E8E8" opacity="1.000000" stroke="none" 
	d="
M313.899078,128.253464 
	C314.562775,128.599686 314.929169,129.047867 315.638947,129.761154 
	C314.552063,130.366180 313.121796,130.706085 311.338867,131.020111 
	C311.858093,130.114624 312.729950,129.235031 313.899078,128.253464 
z"/>
<path fill="#DDDDDD" opacity="1.000000" stroke="none" 
	d="
M394.907898,34.968384 
	C394.526337,33.970169 394.452118,32.864464 394.242676,31.356800 
	C394.476746,32.256863 394.845978,33.558876 394.907898,34.968384 
z"/>
<path fill="#E1E1E1" opacity="1.000000" stroke="none" 
	d="
M291.392883,180.069000 
	C292.160034,179.118896 293.275879,178.211243 294.718750,177.301086 
	C293.944397,178.236221 292.842987,179.173828 291.392883,180.069000 
z"/>
<path fill="#101010" opacity="1.000000" stroke="none" 
	d="
M320.823547,132.122787 
	C320.220001,133.028778 319.291809,134.009766 317.990112,134.959885 
	C318.577362,134.018600 319.538086,133.108200 320.823547,132.122787 
z"/>
<path fill="#DDDDDD" opacity="1.000000" stroke="none" 
	d="
M392.997925,30.123318 
	C391.930908,30.332798 390.784851,30.235838 389.342529,29.964594 
	C390.337158,29.799164 391.627991,29.808020 392.997925,30.123318 
z"/>
<path fill="#E8E8E8" opacity="1.000000" stroke="none" 
	d="
M302.567932,145.969696 
	C301.817657,146.862686 300.685455,147.752609 299.251953,148.776871 
	C300.029114,147.929672 301.107513,146.948151 302.567932,145.969696 
z"/>
<path fill="#242424" opacity="1.000000" stroke="none" 
	d="
M269.363373,196.075806 
	C268.674011,195.586197 268.314392,195.083710 267.650360,194.155838 
	C268.939606,194.155838 269.936066,194.155838 271.287537,194.256516 
	C270.992737,194.925766 270.342926,195.494354 269.363373,196.075806 
z"/>
<path fill="#E1E1E1" opacity="1.000000" stroke="none" 
	d="
M283.089966,187.100616 
	C283.320099,186.409805 283.691040,185.992249 284.347717,185.517929 
	C285.018127,186.259644 285.402863,187.058105 286.174530,188.659592 
	C284.690186,188.011292 283.960480,187.692581 283.089966,187.100616 
z"/>
<path fill="#E1E1E1" opacity="1.000000" stroke="none" 
	d="
M298.702881,183.003159 
	C298.226807,183.894699 297.393799,184.762161 296.255432,185.659622 
	C296.748688,184.786102 297.547333,183.882599 298.702881,183.003159 
z"/>
<path fill="#E1E1E1" opacity="1.000000" stroke="none" 
	d="
M312.099365,163.069931 
	C312.410004,162.200943 312.888977,161.598495 313.666077,160.957886 
	C313.398712,161.725311 312.833221,162.530899 312.099365,163.069931 
z"/>
<path fill="#E1E1E1" opacity="1.000000" stroke="none" 
	d="
M316.360168,159.015244 
	C316.806152,158.076141 317.617706,157.154633 318.737000,156.170959 
	C318.271698,157.083466 317.498688,158.058151 316.360168,159.015244 
z"/>
<path fill="#DCDCDC" opacity="1.000000" stroke="none" 
	d="
M355.956329,116.560577 
	C356.138672,115.612045 356.699341,114.766273 357.541718,113.793152 
	C357.327148,114.664978 356.830902,115.664154 355.956329,116.560577 
z"/>
<path fill="#E1E1E1" opacity="1.000000" stroke="none" 
	d="
M288.717651,182.718628 
	C289.017242,181.798904 289.699860,180.971283 290.703735,180.092651 
	C290.383575,180.964661 289.742126,181.887680 288.717651,182.718628 
z"/>
<path fill="#E8E8E8" opacity="1.000000" stroke="none" 
	d="
M294.520477,151.923676 
	C294.103088,152.555878 293.359955,153.168686 292.291473,153.734131 
	C292.709015,153.092621 293.451874,152.498459 294.520477,151.923676 
z"/>
<path fill="#E8E8E8" opacity="1.000000" stroke="none" 
	d="
M298.581329,148.954330 
	C298.154694,149.578156 297.382599,150.194458 296.285370,150.852020 
	C296.718781,150.244476 297.477325,149.595642 298.581329,148.954330 
z"/>
<path fill="#DDDDDD" opacity="1.000000" stroke="none" 
	d="
M372.110718,95.867699 
	C372.268860,94.956390 372.804260,94.043350 373.632812,92.991531 
	C373.446625,93.857162 372.967316,94.861572 372.110718,95.867699 
z"/>
<path fill="#DCDCDC" opacity="1.000000" stroke="none" 
	d="
M344.238617,130.348419 
	C344.467255,129.433990 344.901276,128.746368 345.634216,127.962967 
	C345.436737,128.769852 344.940369,129.672531 344.238617,130.348419 
z"/>
<path fill="#E1E1E1" opacity="1.000000" stroke="none" 
	d="
M312.029266,171.126892 
	C311.782623,171.734329 311.185425,172.287872 310.276245,172.875946 
	C310.535797,172.297974 311.107269,171.685471 312.029266,171.126892 
z"/>
<path fill="#DDDDDD" opacity="1.000000" stroke="none" 
	d="
M403.939819,47.972443 
	C403.519989,47.539978 403.376160,47.002384 403.258118,46.183613 
	C403.594513,46.557396 403.905182,47.212360 403.939819,47.972443 
z"/>
<path fill="#DDDDDD" opacity="1.000000" stroke="none" 
	d="
M390.975403,47.530495 
	C390.597382,47.995159 390.218628,48.038551 389.554291,48.063171 
	C389.570465,47.289379 389.872253,46.534363 390.442627,45.615257 
	C390.799042,46.003853 390.886871,46.556534 390.975403,47.530495 
z"/>
<path fill="#E1E1E1" opacity="1.000000" stroke="none" 
	d="
M277.881653,190.832458 
	C278.137665,190.212112 278.751770,189.651642 279.686340,189.065094 
	C279.417786,189.656784 278.828735,190.274582 277.881653,190.832458 
z"/>
<path fill="#E1E1E1" opacity="1.000000" stroke="none" 
	d="
M303.833893,178.093018 
	C303.684113,178.739670 303.177521,179.390015 302.361847,180.123062 
	C302.527527,179.502747 303.002319,178.799728 303.833893,178.093018 
z"/>
<path fill="#DDDDDD" opacity="1.000000" stroke="none" 
	d="
M224.990387,30.106695 
	C224.740952,30.702898 224.147400,31.238644 223.249542,31.818878 
	C223.512253,31.257658 224.079269,30.651947 224.990387,30.106695 
z"/>
<path fill="#DDDDDD" opacity="1.000000" stroke="none" 
	d="
M400.894806,44.662025 
	C400.637970,45.196831 400.225952,45.537964 399.418518,45.964935 
	C399.595306,45.523296 400.167450,44.995827 400.894806,44.662025 
z"/>
<path fill="#E1E1E1" opacity="1.000000" stroke="none" 
	d="
M316.837250,168.727570 
	C316.511383,169.276932 316.034424,169.597534 315.264099,169.860687 
	C315.542511,169.368439 316.114319,168.933624 316.837250,168.727570 
z"/>
<path fill="#DDDDDD" opacity="1.000000" stroke="none" 
	d="
M393.631805,39.030426 
	C393.461182,38.501549 393.559479,37.949158 393.884399,37.210457 
	C394.040985,37.685070 393.970856,38.345993 393.631805,39.030426 
z"/>
<path fill="#E8E8E8" opacity="1.000000" stroke="none" 
	d="
M299.090668,139.971085 
	C299.318298,139.393845 299.871948,138.839142 300.729065,138.289566 
	C300.493927,138.861008 299.955322,139.427307 299.090668,139.971085 
z"/>
<path fill="#DDDDDD" opacity="1.000000" stroke="none" 
	d="
M383.003479,79.327209 
	C383.071899,79.023003 383.528503,79.014725 383.756653,79.005051 
	C383.737885,79.627396 383.490936,80.259407 382.927979,80.850632 
	C382.719666,80.417038 382.827362,80.024223 383.003479,79.327209 
z"/>
<path fill="#E8E8E8" opacity="1.000000" stroke="none" 
	d="
M292.668274,145.583008 
	C292.908997,145.691208 293.124725,145.870407 293.340485,146.049606 
	C293.152161,146.051971 292.963837,146.054337 292.639099,145.882248 
	C292.502716,145.707794 292.643311,145.654022 292.668274,145.583008 
z"/>
<path fill="#101010" opacity="1.000000" stroke="none" 
	d="
M358.266052,112.951027 
	C358.085632,112.644363 358.268829,112.384407 358.760193,112.088760 
	C358.835663,112.307030 358.689423,112.621918 358.266052,112.951027 
z"/>
<path fill="#E8E8E8" opacity="1.000000" stroke="none" 
	d="
M334.289734,119.869949 
	C332.170227,116.138863 335.311157,116.535103 337.703491,116.007462 
	C336.911285,117.282318 335.757568,118.537331 334.289734,119.869949 
z"/>
<path fill="#E8E8E8" opacity="1.000000" stroke="none" 
	d="
M323.236542,129.738800 
	C323.739105,128.858429 324.549408,127.926308 325.725220,127.016357 
	C325.241913,127.921379 324.393066,128.804214 323.236542,129.738800 
z"/>
<path fill="#101010" opacity="1.000000" stroke="none" 
	d="
M352.342987,102.992279 
	C352.751892,102.007820 353.542175,101.030548 354.641663,99.966110 
	C354.208710,100.919121 353.466553,101.959290 352.342987,102.992279 
z"/>
<path fill="#101010" opacity="1.000000" stroke="none" 
	d="
M370.195404,82.925682 
	C370.381744,82.069260 370.917999,81.200005 371.752502,80.238220 
	C371.548920,81.068069 371.047150,81.990463 370.195404,82.925682 
z"/>
<path fill="#101010" opacity="1.000000" stroke="none" 
	d="
M346.473450,109.027367 
	C346.700958,108.265259 347.307526,107.496910 348.195801,106.627106 
	C347.935852,107.357475 347.394165,108.189301 346.473450,109.027367 
z"/>
<path fill="#101010" opacity="1.000000" stroke="none" 
	d="
M348.893127,106.597435 
	C349.157959,105.701706 349.783966,104.927696 350.704407,104.075378 
	C350.417328,104.904427 349.835785,105.811790 348.893127,106.597435 
z"/>
<path fill="#101010" opacity="1.000000" stroke="none" 
	d="
M374.249695,77.926407 
	C374.344482,77.258141 374.799103,76.559341 375.556885,75.753044 
	C375.443237,76.395660 375.026398,77.145775 374.249695,77.926407 
z"/>
<path fill="#101010" opacity="1.000000" stroke="none" 
	d="
M363.531372,98.547699 
	C363.476990,98.580048 363.585754,98.515350 363.531372,98.547699 
z"/>
<path fill="#101010" opacity="1.000000" stroke="none" 
	d="
M376.469299,79.448006 
	C376.524536,79.414993 376.414062,79.481018 376.469299,79.448006 
z"/>
<path fill="#323232" opacity="1.000000" stroke="none" 
	d="
M354.680359,67.610847 
	C348.919739,68.115395 342.860748,68.333260 336.340332,68.432114 
	C342.046570,67.983452 348.214264,67.653809 354.680359,67.610847 
z"/>
<path fill="#E8E8E8" opacity="1.000000" stroke="none" 
	d="
M325.567200,73.166275 
	C325.786713,75.454002 325.719025,77.954369 325.380890,80.708786 
	C325.166962,78.434868 325.223511,75.906898 325.567200,73.166275 
z"/>
<path fill="#DDDDDD" opacity="1.000000" stroke="none" 
	d="
M385.702209,52.114246 
	C384.954498,53.742687 383.849182,55.371788 382.391327,57.008667 
	C383.140717,55.382595 384.242645,53.748749 385.702209,52.114246 
z"/>
<path fill="#E8E8E8" opacity="1.000000" stroke="none" 
	d="
M323.316132,115.468933 
	C322.881500,117.087875 322.189667,118.947105 321.100159,120.783630 
	C321.487976,119.077019 322.273438,117.393112 323.316132,115.468933 
z"/>
<path fill="#DDDDDD" opacity="1.000000" stroke="none" 
	d="
M388.564758,48.859756 
	C389.509369,50.714462 389.585449,52.310783 386.450470,52.075451 
	C386.818115,51.019535 387.528351,49.981895 388.564758,48.859756 
z"/>
<path fill="#323232" opacity="1.000000" stroke="none" 
	d="
M330.801727,68.659256 
	C329.846619,69.498215 328.713776,70.096458 327.258057,70.725616 
	C328.164764,69.977196 329.394379,69.197868 330.801727,68.659256 
z"/>
<path fill="#E8E8E8" opacity="1.000000" stroke="none" 
	d="
M325.555542,89.288330 
	C325.972168,90.158195 326.294098,91.363930 326.371155,92.763756 
	C325.904480,91.846634 325.682678,90.735420 325.555542,89.288330 
z"/>
<path fill="#E8E8E8" opacity="1.000000" stroke="none" 
	d="
M325.958588,106.302040 
	C326.140778,106.990952 326.140533,107.941437 325.862549,108.970016 
	C325.648529,108.219948 325.712341,107.391785 325.958588,106.302040 
z"/>
<path fill="#323232" opacity="1.000000" stroke="none" 
	d="
M362.803589,66.626144 
	C362.160278,67.159096 361.348480,67.454338 360.220032,67.638840 
	C360.813934,67.148209 361.724518,66.768326 362.803589,66.626144 
z"/>
<path fill="#323232" opacity="1.000000" stroke="none" 
	d="
M372.266144,63.311687 
	C371.908905,63.897358 371.221436,64.333015 370.228699,64.719696 
	C370.594269,64.167694 371.265076,63.664684 372.266144,63.311687 
z"/>
<path fill="#E8E8E8" opacity="1.000000" stroke="none" 
	d="
M320.449097,120.818680 
	C320.366943,121.446388 319.995331,122.179924 319.269592,122.939445 
	C319.330139,122.285126 319.744904,121.604805 320.449097,120.818680 
z"/>
</svg>