<svg version="1.1" id="Layer_1" xmlns="http://www.w3.org/2000/svg" xmlns:xlink="http://www.w3.org/1999/xlink" x="0px" y="0px"
	 width="100%" viewBox="0 0 288 240" enable-background="new 0 0 288 240" xml:space="preserve">
<path fill="#000000" opacity="1.000000" stroke="none" 
	d="
M90.314575,110.651604 
	C96.728104,85.719421 127.239838,79.661308 145.220734,93.173286 
	C147.749313,95.073433 148.082169,96.507698 145.712708,99.119339 
	C142.058456,103.147041 139.136383,104.818428 133.590744,101.444077 
	C126.028496,96.842667 115.255005,98.931000 108.938309,104.775322 
	C102.825989,110.430550 100.493736,120.332611 103.415665,128.222809 
	C106.778488,137.303558 114.278648,142.618622 123.957489,142.880386 
	C143.317993,143.403992 159.980164,136.105179 175.455215,125.266289 
	C187.029388,117.159615 196.739883,107.197838 205.137039,95.882248 
	C206.485916,94.064583 207.683731,92.027924 209.697556,90.855270 
	C210.646393,91.410995 210.356155,92.083778 210.025024,92.613953 
	C195.024216,116.631180 176.579941,137.058990 150.246765,149.004852 
	C139.551895,153.856491 128.448166,157.241577 116.421021,155.253281 
	C94.181732,151.576736 87.222023,132.453445 89.039810,116.403351 
	C89.244560,114.595490 89.786224,112.825790 90.314575,110.651604 
z"/>
<path fill="#000000" opacity="1.000000" stroke="none" 
	d="
M171.704575,111.981865 
	C171.694260,98.288017 171.694260,98.288017 158.654800,98.425041 
	C152.204376,98.492828 149.388535,94.106339 151.837372,87.919090 
	C152.448120,86.375946 153.656174,86.027672 155.004669,86.029175 
	C172.121567,86.048279 189.238434,86.102669 206.355164,86.182541 
	C206.788055,86.184555 207.219101,86.579208 207.629501,86.780212 
	C206.287460,93.775505 200.921494,98.383430 194.219681,98.389870 
	C183.821274,98.399872 184.753723,98.124420 185.526917,107.188560 
	C186.375626,117.137947 178.572937,119.174255 172.897339,124.167229 
	C170.858719,119.945511 172.074203,116.121361 171.704575,111.981865 
z"/>
<path fill="#000000" opacity="1.000000" stroke="none" 
	d="
M184.957932,130.374207 
	C185.194901,137.502670 185.116409,144.296616 185.370728,151.078094 
	C185.509857,154.787796 183.997116,156.252869 180.432755,156.028183 
	C178.781555,155.924118 177.121170,155.945618 175.464951,155.945984 
	C172.744934,155.946609 171.619263,154.568497 171.699265,151.900681 
	C171.783646,149.087097 171.854980,146.258743 171.663437,143.455200 
	C171.462524,140.514603 172.334351,138.141495 174.897934,136.730804 
	C178.409790,134.798264 180.137833,130.258835 184.957932,130.374207 
z"/>
</svg>