<svg version="1.1" id="Layer_1" xmlns="http://www.w3.org/2000/svg" xmlns:xlink="http://www.w3.org/1999/xlink" x="0px" y="0px"
	 width="100%" viewBox="0 0 580 387" enable-background="new 0 0 580 387" xml:space="preserve">
<path fill="#030706" opacity="1.000000" stroke="none" 
	d="
M401.000000,388.000000 
	C267.333374,388.000000 134.166733,388.000000 1.000072,388.000000 
	C1.000048,259.000061 1.000048,130.000122 1.000024,1.000141 
	C194.333237,1.000094 387.666473,1.000094 580.999756,1.000047 
	C580.999878,129.999863 580.999878,258.999725 580.999939,387.999786 
	C521.166687,388.000000 461.333344,388.000000 401.000000,388.000000 
M293.472809,55.970222 
	C235.242966,56.798950 191.567871,82.779633 166.387619,134.990799 
	C142.005066,185.547882 148.115311,235.105560 182.154495,279.835815 
	C207.358353,312.955688 241.913666,329.964050 284.033447,333.062897 
	C284.033447,326.208984 284.206421,320.231201 283.881439,314.280640 
	C283.819519,313.147095 281.935638,311.445740 280.641449,311.165619 
	C275.773041,310.111755 270.748474,309.783417 265.875580,308.745667 
	C204.802643,295.739471 164.135208,234.270645 176.084091,173.132614 
	C188.197220,111.154198 244.093384,70.534943 307.144104,78.952515 
	C346.902191,84.260399 375.772278,106.150856 394.922638,141.139648 
	C395.578522,142.337982 395.851562,143.745834 396.561401,145.805786 
	C391.335541,145.805786 386.910797,145.805786 381.982666,145.805786 
	C381.982666,152.814606 382.123352,159.272385 381.923737,165.719635 
	C381.822906,168.976929 382.923889,170.099487 386.203033,170.042435 
	C395.697540,169.877243 405.196808,169.985764 414.694214,169.986618 
	C418.641663,169.986969 422.589081,169.986664 426.610260,169.986664 
	C420.497742,120.132263 371.828766,58.079536 293.472809,55.970222 
M229.906464,200.035294 
	C227.852890,204.774536 232.038269,202.655426 233.219360,202.662247 
	C257.711700,202.803650 282.204987,202.765808 306.698120,202.784882 
	C308.642273,202.786392 310.586304,202.944489 313.131836,203.056229 
	C313.131836,245.880096 313.131836,288.272949 313.131836,331.345642 
	C349.020630,325.017670 377.709900,307.978088 399.804596,280.126373 
	C419.598358,255.175186 429.285889,226.555313 429.523193,194.019547 
	C424.129150,194.019547 419.316193,194.352188 414.570587,193.929169 
	C409.477356,193.475189 407.941650,195.161514 407.588226,200.385468 
	C404.735138,242.555969 384.858093,274.434479 348.660767,296.169189 
	C347.040344,297.142181 345.226288,297.792664 343.157776,298.753479 
	C342.808624,297.114624 342.435303,296.176697 342.433960,295.238251 
	C342.391479,265.746674 342.404205,236.255035 342.344391,206.763535 
	C342.338287,203.754654 343.567383,202.687424 346.535767,202.731232 
	C355.031464,202.856598 363.530853,202.832993 372.027161,202.732162 
	C373.605042,202.713455 375.828339,202.602737 376.644897,201.616486 
	C382.633057,194.383575 388.338837,186.916855 394.704407,178.795639 
	C392.422516,178.569458 391.314880,178.363953 390.207184,178.363647 
	C343.553650,178.351044 296.899963,178.320297 250.247025,178.489990 
	C248.328262,178.496979 245.903168,179.969193 244.592560,181.507370 
	C239.627640,187.334320 235.024918,193.469849 229.906464,200.035294 
M217.089218,205.290009 
	C208.167694,192.511520 212.646164,177.361679 227.329483,172.052826 
	C231.751053,170.454163 236.751480,169.860550 241.492126,169.835800 
	C275.981750,169.655640 310.473297,169.641983 344.962616,169.847900 
	C349.831604,169.876968 353.003540,168.495819 355.725006,164.446884 
	C359.339966,159.068588 363.614716,154.135849 367.546204,148.966248 
	C368.262054,148.024918 368.691833,146.865982 369.383270,145.563339 
	C368.229767,145.407639 367.739960,145.283463 367.250244,145.283661 
	C324.929077,145.300705 282.607727,145.269913 240.286865,145.394882 
	C230.070343,145.425064 220.089157,146.968399 210.563507,151.084229 
	C178.277206,165.034500 173.344666,205.543732 201.533463,226.514633 
	C211.568405,233.980026 223.034546,237.830353 235.530182,238.067398 
	C248.855408,238.320190 262.225800,237.579224 275.504303,238.416687 
	C284.270172,238.969528 290.330719,236.680603 294.843262,229.013611 
	C297.712769,224.138199 301.726959,219.936508 306.107086,214.301590 
	C302.030975,214.301590 299.428192,214.300659 296.825439,214.301743 
	C277.997314,214.309525 259.169189,214.325439 240.341049,214.322327 
	C231.708923,214.320908 223.857544,212.183670 217.089218,205.290009 
z"/>
<path fill="#169FAC" opacity="1.000000" stroke="none" 
	d="
M293.965881,55.973637 
	C371.828766,58.079536 420.497742,120.132263 426.610260,169.986664 
	C422.589081,169.986664 418.641663,169.986969 414.694214,169.986618 
	C405.196808,169.985764 395.697540,169.877243 386.203033,170.042435 
	C382.923889,170.099487 381.822906,168.976929 381.923737,165.719635 
	C382.123352,159.272385 381.982666,152.814606 381.982666,145.805786 
	C386.910797,145.805786 391.335541,145.805786 396.561401,145.805786 
	C395.851562,143.745834 395.578522,142.337982 394.922638,141.139648 
	C375.772278,106.150856 346.902191,84.260399 307.144104,78.952515 
	C244.093384,70.534943 188.197220,111.154198 176.084091,173.132614 
	C164.135208,234.270645 204.802643,295.739471 265.875580,308.745667 
	C270.748474,309.783417 275.773041,310.111755 280.641449,311.165619 
	C281.935638,311.445740 283.819519,313.147095 283.881439,314.280640 
	C284.206421,320.231201 284.033447,326.208984 284.033447,333.062897 
	C241.913666,329.964050 207.358353,312.955688 182.154495,279.835815 
	C148.115311,235.105560 142.005066,185.547882 166.387619,134.990799 
	C191.567871,82.779633 235.242966,56.798950 293.965881,55.973637 
z"/>
<path fill="#767676" opacity="1.000000" stroke="none" 
	d="
M230.096588,199.762634 
	C235.024918,193.469849 239.627640,187.334320 244.592560,181.507370 
	C245.903168,179.969193 248.328262,178.496979 250.247025,178.489990 
	C296.899963,178.320297 343.553650,178.351044 390.207184,178.363647 
	C391.314880,178.363953 392.422516,178.569458 394.704407,178.795639 
	C388.338837,186.916855 382.633057,194.383575 376.644897,201.616486 
	C375.828339,202.602737 373.605042,202.713455 372.027161,202.732162 
	C363.530853,202.832993 355.031464,202.856598 346.535767,202.731232 
	C343.567383,202.687424 342.338287,203.754654 342.344391,206.763535 
	C342.404205,236.255035 342.391479,265.746674 342.433960,295.238251 
	C342.435303,296.176697 342.808624,297.114624 343.157776,298.753479 
	C345.226288,297.792664 347.040344,297.142181 348.660767,296.169189 
	C384.858093,274.434479 404.735138,242.555969 407.588226,200.385468 
	C407.941650,195.161514 409.477356,193.475189 414.570587,193.929169 
	C419.316193,194.352188 424.129150,194.019547 429.523193,194.019547 
	C429.285889,226.555313 419.598358,255.175186 399.804596,280.126373 
	C377.709900,307.978088 349.020630,325.017670 313.131836,331.345642 
	C313.131836,288.272949 313.131836,245.880096 313.131836,203.056229 
	C310.586304,202.944489 308.642273,202.786392 306.698120,202.784882 
	C282.204987,202.765808 257.711700,202.803650 233.219360,202.662247 
	C232.038269,202.655426 227.852890,204.774536 230.096588,199.762634 
z"/>
<path fill="#169FAB" opacity="1.000000" stroke="none" 
	d="
M217.330505,205.572479 
	C223.857544,212.183670 231.708923,214.320908 240.341049,214.322327 
	C259.169189,214.325439 277.997314,214.309525 296.825439,214.301743 
	C299.428192,214.300659 302.030975,214.301590 306.107086,214.301590 
	C301.726959,219.936508 297.712769,224.138199 294.843262,229.013611 
	C290.330719,236.680603 284.270172,238.969528 275.504303,238.416687 
	C262.225800,237.579224 248.855408,238.320190 235.530182,238.067398 
	C223.034546,237.830353 211.568405,233.980026 201.533463,226.514633 
	C173.344666,205.543732 178.277206,165.034500 210.563507,151.084229 
	C220.089157,146.968399 230.070343,145.425064 240.286865,145.394882 
	C282.607727,145.269913 324.929077,145.300705 367.250244,145.283661 
	C367.739960,145.283463 368.229767,145.407639 369.383270,145.563339 
	C368.691833,146.865982 368.262054,148.024918 367.546204,148.966248 
	C363.614716,154.135849 359.339966,159.068588 355.725006,164.446884 
	C353.003540,168.495819 349.831604,169.876968 344.962616,169.847900 
	C310.473297,169.641983 275.981750,169.655640 241.492126,169.835800 
	C236.751480,169.860550 231.751053,170.454163 227.329483,172.052826 
	C212.646164,177.361679 208.167694,192.511520 217.330505,205.572479 
z"/>
</svg>